G75*
G70*
%OFA0B0*%
%FSLAX24Y24*%
%IPPOS*%
%LPD*%
%AMOC8*
5,1,8,0,0,1.08239X$1,22.5*
%
%ADD10C,0.0000*%
%ADD11C,0.0520*%
%ADD12C,0.0515*%
%ADD13C,0.1122*%
%ADD14R,0.0740X0.0740*%
%ADD15C,0.0740*%
%ADD16C,0.0600*%
%ADD17OC8,0.0520*%
%ADD18R,0.0650X0.0650*%
%ADD19C,0.0650*%
%ADD20C,0.0160*%
%ADD21C,0.0357*%
D10*
X000181Y000181D02*
X000181Y019866D01*
X019866Y019866D01*
X019866Y000181D01*
X000181Y000181D01*
D11*
X005921Y007197D02*
X006441Y007197D01*
X006441Y008181D02*
X005921Y008181D01*
X005921Y009166D02*
X006441Y009166D01*
X007921Y009181D02*
X008441Y009181D01*
X008441Y008181D02*
X007921Y008181D01*
X007921Y007181D02*
X008441Y007181D01*
X008441Y006181D02*
X007921Y006181D01*
X007921Y005181D02*
X008441Y005181D01*
X008441Y004181D02*
X007921Y004181D01*
X007921Y003181D02*
X008441Y003181D01*
X010921Y003181D02*
X011441Y003181D01*
X011441Y004181D02*
X010921Y004181D01*
X010921Y005181D02*
X011441Y005181D01*
X011441Y006181D02*
X010921Y006181D01*
X010921Y007181D02*
X011441Y007181D01*
X011441Y008181D02*
X010921Y008181D01*
X010921Y009181D02*
X011441Y009181D01*
X011441Y010181D02*
X010921Y010181D01*
X010921Y011181D02*
X011441Y011181D01*
X011441Y012181D02*
X010921Y012181D01*
X010921Y013181D02*
X011441Y013181D01*
X011441Y014181D02*
X010921Y014181D01*
X010921Y015181D02*
X011441Y015181D01*
X011441Y016181D02*
X010921Y016181D01*
X008441Y016181D02*
X007921Y016181D01*
X007921Y015181D02*
X008441Y015181D01*
X008441Y014181D02*
X007921Y014181D01*
X007921Y013181D02*
X008441Y013181D01*
X008441Y012181D02*
X007921Y012181D01*
X007921Y011181D02*
X008441Y011181D01*
X008441Y010181D02*
X007921Y010181D01*
D12*
X003101Y016081D03*
X002431Y016081D03*
X002101Y016701D03*
X002791Y016701D03*
X001731Y016081D03*
D13*
X000994Y018181D03*
X003868Y018181D03*
D14*
X000681Y014181D03*
X000681Y009181D03*
X000681Y004181D03*
X003181Y001181D03*
X018681Y004181D03*
X018681Y009181D03*
X016681Y018681D03*
X013181Y018681D03*
D15*
X014181Y018681D03*
X015181Y018681D03*
X017681Y018681D03*
X018681Y018681D03*
X018681Y008181D03*
X018681Y007181D03*
X018681Y006181D03*
X018681Y003181D03*
X018681Y002181D03*
X018681Y001181D03*
X008181Y001181D03*
X007181Y001181D03*
X006181Y001181D03*
X005181Y001181D03*
X004181Y001181D03*
X000681Y001181D03*
X000681Y002181D03*
X000681Y003181D03*
X000681Y006181D03*
X000681Y007181D03*
X000681Y008181D03*
X000681Y011181D03*
X000681Y012181D03*
X000681Y013181D03*
D16*
X005256Y016931D02*
X005856Y016931D01*
X005856Y017931D02*
X005256Y017931D01*
X005256Y018931D02*
X005856Y018931D01*
D17*
X009806Y018681D03*
X009806Y017681D03*
X011681Y017681D03*
X011681Y018681D03*
X013681Y016681D03*
X015181Y015181D03*
X016931Y015181D03*
X017681Y016681D03*
X018681Y015181D03*
X018681Y014181D03*
X016931Y011181D03*
X015181Y011181D03*
X015181Y009681D03*
X013181Y011181D03*
X013181Y012181D03*
X015181Y005681D03*
X014681Y004181D03*
X015681Y004181D03*
X015681Y001681D03*
X011681Y001681D03*
X004181Y004181D03*
X003181Y004181D03*
X005556Y011431D03*
X006556Y011431D03*
D18*
X013181Y008181D03*
X007431Y018681D03*
D19*
X007431Y017681D03*
X014181Y008181D03*
D20*
X014182Y008181D01*
X014182Y008182D01*
X014686Y008182D01*
X014686Y008221D01*
X014674Y008300D01*
X014649Y008375D01*
X014613Y008446D01*
X014567Y008510D01*
X014510Y008567D01*
X014446Y008613D01*
X014375Y008649D01*
X014300Y008674D01*
X014221Y008686D01*
X014182Y008686D01*
X014182Y008182D01*
X014181Y008182D01*
X014181Y008686D01*
X014142Y008686D01*
X014063Y008674D01*
X013988Y008649D01*
X013917Y008613D01*
X013852Y008567D01*
X013796Y008510D01*
X013749Y008446D01*
X013713Y008375D01*
X013706Y008353D01*
X013706Y008589D01*
X013589Y008706D01*
X012774Y008706D01*
X012656Y008589D01*
X012656Y007774D01*
X012774Y007656D01*
X013589Y007656D01*
X013706Y007774D01*
X013706Y008009D01*
X013713Y007988D01*
X013749Y007917D01*
X013796Y007852D01*
X013852Y007796D01*
X013917Y007749D01*
X013988Y007713D01*
X014063Y007689D01*
X014142Y007676D01*
X014181Y007676D01*
X014181Y008181D01*
X014182Y008181D02*
X014182Y007676D01*
X014221Y007676D01*
X014300Y007689D01*
X014375Y007713D01*
X014446Y007749D01*
X014510Y007796D01*
X014567Y007852D01*
X014613Y007917D01*
X014649Y007988D01*
X014674Y008063D01*
X014686Y008142D01*
X014686Y008181D01*
X014182Y008181D01*
X014181Y008109D02*
X014182Y008109D01*
X014181Y008267D02*
X014182Y008267D01*
X014181Y008426D02*
X014182Y008426D01*
X014181Y008584D02*
X014182Y008584D01*
X014106Y008803D02*
X014257Y008803D01*
X014396Y008861D01*
X014502Y008967D01*
X014560Y009106D01*
X014560Y009257D01*
X014502Y009396D01*
X014461Y009437D01*
X014461Y013926D01*
X014502Y013967D01*
X014560Y014106D01*
X014560Y014257D01*
X014502Y014396D01*
X014396Y014502D01*
X014257Y014560D01*
X014106Y014560D01*
X013967Y014502D01*
X013961Y014496D01*
X013961Y015426D01*
X014002Y015467D01*
X014060Y015606D01*
X014060Y015757D01*
X014002Y015896D01*
X013896Y016002D01*
X013757Y016060D01*
X013606Y016060D01*
X013467Y016002D01*
X013361Y015896D01*
X013303Y015757D01*
X013303Y015606D01*
X013361Y015467D01*
X013401Y015426D01*
X013401Y012584D01*
X013364Y012621D01*
X013182Y012621D01*
X013182Y012182D01*
X013181Y012182D01*
X013181Y012621D01*
X012999Y012621D01*
X012741Y012364D01*
X012741Y012182D01*
X013181Y012182D01*
X013181Y012181D01*
X013182Y012181D01*
X013182Y011741D01*
X013364Y011741D01*
X013401Y011779D01*
X013401Y011612D01*
X013372Y011641D01*
X012991Y011641D01*
X012721Y011372D01*
X012721Y010991D01*
X012991Y010721D01*
X013372Y010721D01*
X013498Y010848D01*
X013606Y010803D01*
X013757Y010803D01*
X013896Y010861D01*
X013901Y010866D01*
X013901Y009437D01*
X013861Y009396D01*
X013803Y009257D01*
X013803Y009106D01*
X013861Y008967D01*
X013967Y008861D01*
X014106Y008803D01*
X013926Y008901D02*
X012461Y008901D01*
X012461Y008743D02*
X015776Y008743D01*
X015776Y008901D02*
X014436Y008901D01*
X014541Y009060D02*
X015776Y009060D01*
X015776Y009218D02*
X014560Y009218D01*
X014510Y009377D02*
X014835Y009377D01*
X014721Y009491D02*
X014991Y009221D01*
X015372Y009221D01*
X015641Y009491D01*
X015641Y009872D01*
X015372Y010141D01*
X014991Y010141D01*
X014721Y009872D01*
X014721Y009491D01*
X014721Y009535D02*
X014461Y009535D01*
X014461Y009694D02*
X014721Y009694D01*
X014721Y009853D02*
X014461Y009853D01*
X014461Y010011D02*
X014861Y010011D01*
X014461Y010170D02*
X015776Y010170D01*
X015776Y010328D02*
X014461Y010328D01*
X014461Y010487D02*
X015776Y010487D01*
X015776Y010645D02*
X014461Y010645D01*
X014461Y010804D02*
X014908Y010804D01*
X014991Y010721D02*
X014721Y010991D01*
X014721Y011372D01*
X014991Y011641D01*
X015372Y011641D01*
X015641Y011372D01*
X015641Y010991D01*
X015372Y010721D01*
X014991Y010721D01*
X014750Y010962D02*
X014461Y010962D01*
X014461Y011121D02*
X014721Y011121D01*
X014721Y011279D02*
X014461Y011279D01*
X014461Y011438D02*
X014787Y011438D01*
X014946Y011597D02*
X014461Y011597D01*
X014461Y011755D02*
X015776Y011755D01*
X015776Y011597D02*
X015417Y011597D01*
X015575Y011438D02*
X015776Y011438D01*
X015776Y011279D02*
X015641Y011279D01*
X015641Y011121D02*
X015776Y011121D01*
X015776Y010962D02*
X015613Y010962D01*
X015454Y010804D02*
X015776Y010804D01*
X016336Y010804D02*
X016687Y010804D01*
X016749Y010741D02*
X016491Y010999D01*
X016491Y011181D01*
X016931Y011181D01*
X016931Y011182D01*
X016931Y011621D01*
X016749Y011621D01*
X016491Y011364D01*
X016491Y011182D01*
X016931Y011182D01*
X016932Y011182D01*
X016932Y011621D01*
X017114Y011621D01*
X017371Y011364D01*
X017371Y011182D01*
X016932Y011182D01*
X016932Y011181D01*
X017371Y011181D01*
X017371Y010999D01*
X017114Y010741D01*
X016932Y010741D01*
X016932Y011181D01*
X016931Y011181D01*
X016931Y010741D01*
X016749Y010741D01*
X016931Y010804D02*
X016932Y010804D01*
X016931Y010962D02*
X016932Y010962D01*
X016931Y011121D02*
X016932Y011121D01*
X016931Y011279D02*
X016932Y011279D01*
X016931Y011438D02*
X016932Y011438D01*
X016931Y011597D02*
X016932Y011597D01*
X017138Y011597D02*
X017526Y011597D01*
X017526Y011755D02*
X016336Y011755D01*
X016336Y011597D02*
X016724Y011597D01*
X016566Y011438D02*
X016336Y011438D01*
X016336Y011279D02*
X016491Y011279D01*
X016491Y011121D02*
X016336Y011121D01*
X016336Y010962D02*
X016528Y010962D01*
X016336Y010645D02*
X017526Y010645D01*
X017526Y010487D02*
X016336Y010487D01*
X016336Y010328D02*
X017526Y010328D01*
X017526Y010170D02*
X016336Y010170D01*
X016336Y010011D02*
X017526Y010011D01*
X017526Y009937D02*
X017486Y009896D01*
X017428Y009757D01*
X017428Y009606D01*
X017486Y009467D01*
X017592Y009361D01*
X017731Y009303D01*
X017882Y009303D01*
X018021Y009361D01*
X018111Y009451D01*
X018111Y008729D01*
X018229Y008611D01*
X018305Y008611D01*
X018198Y008504D01*
X018111Y008295D01*
X018111Y008068D01*
X018198Y007859D01*
X018359Y007698D01*
X018399Y007681D01*
X018359Y007665D01*
X018198Y007504D01*
X018111Y007295D01*
X018111Y007068D01*
X018198Y006859D01*
X018359Y006698D01*
X018399Y006681D01*
X018359Y006665D01*
X018198Y006504D01*
X018111Y006295D01*
X018111Y006068D01*
X018198Y005859D01*
X018359Y005698D01*
X018568Y005611D01*
X018795Y005611D01*
X019004Y005698D01*
X019165Y005859D01*
X019251Y006068D01*
X019251Y006295D01*
X019165Y006504D01*
X019004Y006665D01*
X018964Y006681D01*
X019004Y006698D01*
X019165Y006859D01*
X019251Y007068D01*
X019251Y007295D01*
X019165Y007504D01*
X019004Y007665D01*
X018964Y007681D01*
X019004Y007698D01*
X019165Y007859D01*
X019251Y008068D01*
X019251Y008295D01*
X019165Y008504D01*
X019057Y008611D01*
X019134Y008611D01*
X019251Y008729D01*
X019251Y009634D01*
X019134Y009751D01*
X018229Y009751D01*
X018185Y009708D01*
X018185Y009757D01*
X018127Y009896D01*
X018086Y009937D01*
X018086Y015676D01*
X018127Y015717D01*
X018185Y015856D01*
X018185Y016007D01*
X018127Y016146D01*
X018021Y016252D01*
X017917Y016295D01*
X018121Y016499D01*
X018121Y016681D01*
X017682Y016681D01*
X017682Y016682D01*
X017681Y016682D01*
X017681Y017121D01*
X017499Y017121D01*
X017241Y016864D01*
X017241Y016682D01*
X017681Y016682D01*
X017681Y016681D01*
X017241Y016681D01*
X017241Y016499D01*
X017499Y016241D01*
X017581Y016241D01*
X017486Y016146D01*
X017428Y016007D01*
X017428Y015856D01*
X017486Y015717D01*
X017526Y015676D01*
X017526Y009937D01*
X017468Y009853D02*
X016336Y009853D01*
X016336Y009694D02*
X017428Y009694D01*
X017457Y009535D02*
X016336Y009535D01*
X016336Y009377D02*
X017576Y009377D01*
X017806Y009681D02*
X017806Y015931D01*
X018079Y016194D02*
X018401Y016194D01*
X018401Y016187D02*
X018361Y016146D01*
X018303Y016007D01*
X018303Y015856D01*
X018361Y015717D01*
X018464Y015614D01*
X018221Y015372D01*
X018221Y014991D01*
X018491Y014721D01*
X018872Y014721D01*
X019141Y014991D01*
X019141Y015372D01*
X018899Y015614D01*
X019002Y015717D01*
X019060Y015856D01*
X019060Y016007D01*
X019002Y016146D01*
X018961Y016187D01*
X018961Y018180D01*
X019004Y018198D01*
X019165Y018359D01*
X019251Y018568D01*
X019251Y018795D01*
X019165Y019004D01*
X019004Y019165D01*
X018795Y019251D01*
X018568Y019251D01*
X018359Y019165D01*
X018198Y019004D01*
X018181Y018964D01*
X018165Y019004D01*
X018004Y019165D01*
X017795Y019251D01*
X017568Y019251D01*
X017359Y019165D01*
X017251Y019057D01*
X017251Y019134D01*
X017134Y019251D01*
X016229Y019251D01*
X016111Y019134D01*
X016111Y018229D01*
X016229Y018111D01*
X017134Y018111D01*
X017251Y018229D01*
X017251Y018305D01*
X017359Y018198D01*
X017568Y018111D01*
X017795Y018111D01*
X018004Y018198D01*
X018165Y018359D01*
X018181Y018399D01*
X018198Y018359D01*
X018359Y018198D01*
X018401Y018180D01*
X018401Y016187D01*
X018401Y016353D02*
X017975Y016353D01*
X018121Y016511D02*
X018401Y016511D01*
X018401Y016670D02*
X018121Y016670D01*
X018121Y016682D02*
X018121Y016864D01*
X017864Y017121D01*
X017682Y017121D01*
X017682Y016682D01*
X018121Y016682D01*
X018121Y016828D02*
X018401Y016828D01*
X018401Y016987D02*
X017998Y016987D01*
X017682Y016987D02*
X017681Y016987D01*
X017681Y016828D02*
X017682Y016828D01*
X017365Y016987D02*
X014026Y016987D01*
X014141Y016872D02*
X013872Y017141D01*
X013491Y017141D01*
X013452Y017102D01*
X013461Y017126D01*
X013461Y017237D01*
X013461Y018111D01*
X013634Y018111D01*
X013751Y018229D01*
X013751Y018305D01*
X013859Y018198D01*
X014068Y018111D01*
X014295Y018111D01*
X014504Y018198D01*
X014665Y018359D01*
X014693Y018428D01*
X014711Y018393D01*
X014762Y018323D01*
X014823Y018262D01*
X014893Y018211D01*
X014970Y018172D01*
X015053Y018145D01*
X015138Y018131D01*
X015161Y018131D01*
X015161Y018661D01*
X015201Y018661D01*
X015201Y018131D01*
X015225Y018131D01*
X015310Y018145D01*
X015393Y018172D01*
X015470Y018211D01*
X015540Y018262D01*
X015601Y018323D01*
X015652Y018393D01*
X015691Y018470D01*
X015718Y018553D01*
X015731Y018638D01*
X015731Y018661D01*
X015202Y018661D01*
X015202Y018701D01*
X015731Y018701D01*
X015731Y018725D01*
X015718Y018810D01*
X015691Y018893D01*
X015652Y018970D01*
X015601Y019040D01*
X015540Y019101D01*
X015470Y019152D01*
X015393Y019191D01*
X015310Y019218D01*
X015225Y019231D01*
X015201Y019231D01*
X015201Y018702D01*
X015161Y018702D01*
X015161Y019231D01*
X015138Y019231D01*
X015053Y019218D01*
X014970Y019191D01*
X014893Y019152D01*
X014823Y019101D01*
X014762Y019040D01*
X014711Y018970D01*
X014693Y018935D01*
X014665Y019004D01*
X014504Y019165D01*
X014295Y019251D01*
X014068Y019251D01*
X013859Y019165D01*
X013751Y019057D01*
X013751Y019134D01*
X013634Y019251D01*
X012729Y019251D01*
X012611Y019134D01*
X012611Y018229D01*
X012729Y018111D01*
X012901Y018111D01*
X012901Y017297D01*
X011894Y016290D01*
X011870Y016350D01*
X011896Y016361D01*
X012002Y016467D01*
X012060Y016606D01*
X012060Y016757D01*
X012002Y016896D01*
X011961Y016937D01*
X011961Y017311D01*
X012141Y017491D01*
X012141Y017872D01*
X011872Y018141D01*
X011491Y018141D01*
X011221Y017872D01*
X011221Y017491D01*
X011401Y017311D01*
X011401Y016937D01*
X011361Y016896D01*
X011303Y016757D01*
X011303Y016641D01*
X010830Y016641D01*
X010661Y016571D01*
X010531Y016442D01*
X010507Y016384D01*
X010502Y016396D01*
X010396Y016502D01*
X010257Y016560D01*
X010106Y016560D01*
X010096Y016556D01*
X009044Y017169D01*
X009002Y017271D01*
X008896Y017377D01*
X008757Y017435D01*
X008606Y017435D01*
X008467Y017377D01*
X008361Y017271D01*
X008303Y017132D01*
X008303Y016981D01*
X008361Y016842D01*
X008467Y016736D01*
X008606Y016678D01*
X008757Y016678D01*
X008767Y016682D01*
X009818Y016069D01*
X009861Y015967D01*
X009901Y015926D01*
X009901Y013996D01*
X009896Y014002D01*
X009757Y014060D01*
X009606Y014060D01*
X009467Y014002D01*
X009461Y013996D01*
X009461Y014426D01*
X009502Y014467D01*
X009560Y014606D01*
X009560Y014757D01*
X009502Y014896D01*
X009396Y015002D01*
X009257Y015060D01*
X009106Y015060D01*
X008967Y015002D01*
X008861Y014896D01*
X008803Y014757D01*
X008803Y014606D01*
X008861Y014467D01*
X008901Y014426D01*
X008901Y003437D01*
X008861Y003396D01*
X008856Y003384D01*
X008831Y003442D01*
X008702Y003571D01*
X008533Y003641D01*
X007830Y003641D01*
X007661Y003571D01*
X007531Y003442D01*
X007461Y003273D01*
X007461Y003090D01*
X007531Y002921D01*
X007661Y002791D01*
X007830Y002721D01*
X008533Y002721D01*
X008702Y002791D01*
X008831Y002921D01*
X008856Y002979D01*
X008861Y002967D01*
X008967Y002861D01*
X009106Y002803D01*
X009257Y002803D01*
X009396Y002861D01*
X009502Y002967D01*
X009560Y003106D01*
X009560Y003257D01*
X009502Y003396D01*
X009461Y003437D01*
X009461Y009866D01*
X009467Y009861D01*
X009606Y009803D01*
X009757Y009803D01*
X009896Y009861D01*
X009901Y009866D01*
X009901Y004437D01*
X009861Y004396D01*
X009803Y004257D01*
X009803Y004106D01*
X009861Y003967D01*
X009901Y003926D01*
X009901Y002937D01*
X009861Y002896D01*
X009803Y002757D01*
X009803Y002606D01*
X009861Y002467D01*
X009967Y002361D01*
X010106Y002303D01*
X010257Y002303D01*
X010396Y002361D01*
X010502Y002467D01*
X010560Y002606D01*
X010560Y002757D01*
X010502Y002896D01*
X010461Y002937D01*
X010461Y003926D01*
X010502Y003967D01*
X010507Y003979D01*
X010531Y003921D01*
X010661Y003791D01*
X010830Y003721D01*
X011533Y003721D01*
X011702Y003791D01*
X011831Y003921D01*
X011901Y004090D01*
X011901Y004273D01*
X011831Y004442D01*
X011702Y004571D01*
X011533Y004641D01*
X010830Y004641D01*
X010661Y004571D01*
X010531Y004442D01*
X010507Y004384D01*
X010502Y004396D01*
X010461Y004437D01*
X010461Y015926D01*
X010502Y015967D01*
X010507Y015979D01*
X010531Y015921D01*
X010661Y015791D01*
X010830Y015721D01*
X011303Y015721D01*
X011303Y015621D01*
X011182Y015621D01*
X011182Y015182D01*
X011881Y015182D01*
X011881Y015216D01*
X011871Y015284D01*
X011852Y015342D01*
X011896Y015361D01*
X012002Y015467D01*
X012060Y015606D01*
X012060Y015664D01*
X013221Y016826D01*
X013221Y016491D01*
X013491Y016221D01*
X013872Y016221D01*
X014141Y016491D01*
X014141Y016872D01*
X014141Y016828D02*
X017241Y016828D01*
X017241Y016670D02*
X014141Y016670D01*
X014141Y016511D02*
X017241Y016511D01*
X017388Y016353D02*
X014003Y016353D01*
X013815Y016036D02*
X017440Y016036D01*
X017428Y015877D02*
X014010Y015877D01*
X014060Y015719D02*
X017485Y015719D01*
X017526Y015560D02*
X017203Y015560D01*
X017122Y015641D02*
X017391Y015372D01*
X017391Y014991D01*
X017122Y014721D01*
X016741Y014721D01*
X016471Y014991D01*
X016471Y015372D01*
X016741Y015641D01*
X017122Y015641D01*
X017362Y015402D02*
X017526Y015402D01*
X017526Y015243D02*
X017391Y015243D01*
X017391Y015084D02*
X017526Y015084D01*
X017526Y014926D02*
X017326Y014926D01*
X017168Y014767D02*
X017526Y014767D01*
X017526Y014609D02*
X013961Y014609D01*
X013961Y014767D02*
X014945Y014767D01*
X014991Y014721D02*
X014721Y014991D01*
X014721Y015372D01*
X014991Y015641D01*
X015372Y015641D01*
X015641Y015372D01*
X015641Y014991D01*
X015372Y014721D01*
X014991Y014721D01*
X014786Y014926D02*
X013961Y014926D01*
X013961Y015084D02*
X014721Y015084D01*
X014721Y015243D02*
X013961Y015243D01*
X013961Y015402D02*
X014751Y015402D01*
X014910Y015560D02*
X014041Y015560D01*
X013681Y015681D02*
X013681Y011181D01*
X013604Y010804D02*
X013454Y010804D01*
X013759Y010804D02*
X013901Y010804D01*
X013901Y010645D02*
X012461Y010645D01*
X012461Y010487D02*
X013901Y010487D01*
X013901Y010328D02*
X012461Y010328D01*
X012461Y010170D02*
X013901Y010170D01*
X013901Y010011D02*
X012461Y010011D01*
X012461Y009853D02*
X013901Y009853D01*
X013901Y009694D02*
X012461Y009694D01*
X012461Y009535D02*
X013901Y009535D01*
X013853Y009377D02*
X012461Y009377D01*
X012461Y009218D02*
X013803Y009218D01*
X013822Y009060D02*
X012461Y009060D01*
X012461Y008584D02*
X012656Y008584D01*
X012656Y008426D02*
X012461Y008426D01*
X012461Y008267D02*
X012656Y008267D01*
X012656Y008109D02*
X012461Y008109D01*
X012461Y007950D02*
X012656Y007950D01*
X012656Y007791D02*
X012461Y007791D01*
X012461Y007633D02*
X018327Y007633D01*
X018265Y007791D02*
X014504Y007791D01*
X014630Y007950D02*
X015753Y007950D01*
X015736Y007967D02*
X015842Y007861D01*
X015981Y007803D01*
X016132Y007803D01*
X016271Y007861D01*
X016377Y007967D01*
X016435Y008106D01*
X016435Y008257D01*
X016377Y008396D01*
X016336Y008437D01*
X016336Y012926D01*
X016377Y012967D01*
X016435Y013106D01*
X016435Y013257D01*
X016377Y013396D01*
X016271Y013502D01*
X016132Y013560D01*
X015981Y013560D01*
X015842Y013502D01*
X015736Y013396D01*
X015678Y013257D01*
X015678Y013106D01*
X015736Y012967D01*
X015776Y012926D01*
X015776Y008437D01*
X015736Y008396D01*
X015678Y008257D01*
X015678Y008106D01*
X015736Y007967D01*
X015678Y008109D02*
X014681Y008109D01*
X014679Y008267D02*
X015682Y008267D01*
X015766Y008426D02*
X014624Y008426D01*
X014486Y008584D02*
X015776Y008584D01*
X016056Y008181D02*
X016056Y013181D01*
X015678Y013182D02*
X014461Y013182D01*
X014461Y013341D02*
X015713Y013341D01*
X015839Y013499D02*
X014461Y013499D01*
X014461Y013658D02*
X017526Y013658D01*
X017526Y013816D02*
X014461Y013816D01*
X014505Y013975D02*
X017526Y013975D01*
X017526Y014133D02*
X014560Y014133D01*
X014545Y014292D02*
X017526Y014292D01*
X017526Y014450D02*
X014448Y014450D01*
X014181Y014181D02*
X014181Y009181D01*
X013877Y008584D02*
X013706Y008584D01*
X013706Y008426D02*
X013739Y008426D01*
X013733Y007950D02*
X013706Y007950D01*
X013706Y007791D02*
X013859Y007791D01*
X014181Y007791D02*
X014182Y007791D01*
X014181Y007950D02*
X014182Y007950D01*
X015527Y009377D02*
X015776Y009377D01*
X015776Y009535D02*
X015641Y009535D01*
X015641Y009694D02*
X015776Y009694D01*
X015776Y009853D02*
X015641Y009853D01*
X015776Y010011D02*
X015502Y010011D01*
X016336Y009218D02*
X018111Y009218D01*
X018111Y009060D02*
X016336Y009060D01*
X016336Y008901D02*
X018111Y008901D01*
X018111Y008743D02*
X016336Y008743D01*
X016336Y008584D02*
X018278Y008584D01*
X018166Y008426D02*
X016347Y008426D01*
X016431Y008267D02*
X018111Y008267D01*
X018111Y008109D02*
X016435Y008109D01*
X016360Y007950D02*
X018160Y007950D01*
X018186Y007474D02*
X012461Y007474D01*
X012461Y007437D02*
X012461Y011926D01*
X012502Y011967D01*
X012560Y012106D01*
X012560Y012257D01*
X012502Y012396D01*
X012396Y012502D01*
X012257Y012560D01*
X012106Y012560D01*
X011967Y012502D01*
X011861Y012396D01*
X011856Y012384D01*
X011831Y012442D01*
X011702Y012571D01*
X011533Y012641D01*
X010830Y012641D01*
X010661Y012571D01*
X010531Y012442D01*
X010461Y012273D01*
X010461Y012090D01*
X010531Y011921D01*
X010661Y011791D01*
X010830Y011721D01*
X011533Y011721D01*
X011702Y011791D01*
X011831Y011921D01*
X011856Y011979D01*
X011861Y011967D01*
X011901Y011926D01*
X011901Y007437D01*
X011861Y007396D01*
X011845Y007358D01*
X011818Y007412D01*
X011777Y007468D01*
X011728Y007517D01*
X011672Y007558D01*
X011610Y007589D01*
X011544Y007611D01*
X011476Y007621D01*
X011182Y007621D01*
X011182Y007182D01*
X011181Y007182D01*
X011181Y007621D01*
X010887Y007621D01*
X010818Y007611D01*
X010752Y007589D01*
X010691Y007558D01*
X010635Y007517D01*
X010586Y007468D01*
X010545Y007412D01*
X010514Y007350D01*
X010492Y007284D01*
X010481Y007216D01*
X010481Y007182D01*
X011181Y007182D01*
X011181Y007181D01*
X011182Y007181D01*
X011182Y006741D01*
X011476Y006741D01*
X011544Y006752D01*
X011610Y006774D01*
X011672Y006805D01*
X011728Y006846D01*
X011777Y006895D01*
X011818Y006951D01*
X011845Y007005D01*
X011861Y006967D01*
X011967Y006861D01*
X012106Y006803D01*
X012257Y006803D01*
X012396Y006861D01*
X012502Y006967D01*
X012560Y007106D01*
X012560Y007257D01*
X012502Y007396D01*
X012461Y007437D01*
X012535Y007316D02*
X018120Y007316D01*
X018111Y007157D02*
X012560Y007157D01*
X012515Y006999D02*
X018140Y006999D01*
X018216Y006840D02*
X012347Y006840D01*
X012016Y006840D02*
X011720Y006840D01*
X011842Y006999D02*
X011847Y006999D01*
X012181Y007181D02*
X012181Y012181D01*
X011858Y012389D02*
X011853Y012389D01*
X011726Y012548D02*
X012077Y012548D01*
X012286Y012548D02*
X012926Y012548D01*
X012767Y012389D02*
X012505Y012389D01*
X012560Y012231D02*
X012741Y012231D01*
X012741Y012181D02*
X012741Y011999D01*
X012999Y011741D01*
X013181Y011741D01*
X013181Y012181D01*
X012741Y012181D01*
X012741Y012072D02*
X012546Y012072D01*
X012461Y011914D02*
X012827Y011914D01*
X012986Y011755D02*
X012461Y011755D01*
X012461Y011597D02*
X012946Y011597D01*
X012787Y011438D02*
X012461Y011438D01*
X012461Y011279D02*
X012721Y011279D01*
X012721Y011121D02*
X012461Y011121D01*
X012461Y010962D02*
X012750Y010962D01*
X012908Y010804D02*
X012461Y010804D01*
X011901Y010804D02*
X011714Y010804D01*
X011702Y010791D02*
X011831Y010921D01*
X011901Y011090D01*
X011901Y011273D01*
X011831Y011442D01*
X011702Y011571D01*
X011533Y011641D01*
X010830Y011641D01*
X010661Y011571D01*
X010531Y011442D01*
X010461Y011273D01*
X010461Y011090D01*
X010531Y010921D01*
X010661Y010791D01*
X010830Y010721D01*
X011533Y010721D01*
X011702Y010791D01*
X011702Y010571D02*
X011533Y010641D01*
X010830Y010641D01*
X010661Y010571D01*
X010531Y010442D01*
X010461Y010273D01*
X010461Y010090D01*
X010531Y009921D01*
X010661Y009791D01*
X010830Y009721D01*
X011533Y009721D01*
X011702Y009791D01*
X011831Y009921D01*
X011901Y010090D01*
X011901Y010273D01*
X011831Y010442D01*
X011702Y010571D01*
X011787Y010487D02*
X011901Y010487D01*
X011901Y010645D02*
X010461Y010645D01*
X010461Y010487D02*
X010576Y010487D01*
X010484Y010328D02*
X010461Y010328D01*
X010461Y010170D02*
X010461Y010170D01*
X010461Y010011D02*
X010494Y010011D01*
X010461Y009853D02*
X010600Y009853D01*
X010461Y009694D02*
X011901Y009694D01*
X011901Y009853D02*
X011763Y009853D01*
X011869Y010011D02*
X011901Y010011D01*
X011901Y010170D02*
X011901Y010170D01*
X011901Y010328D02*
X011879Y010328D01*
X011849Y010962D02*
X011901Y010962D01*
X011901Y011121D02*
X011901Y011121D01*
X011899Y011279D02*
X011901Y011279D01*
X011901Y011438D02*
X011833Y011438D01*
X011901Y011597D02*
X011641Y011597D01*
X011614Y011755D02*
X011901Y011755D01*
X011901Y011914D02*
X011824Y011914D01*
X011533Y012721D02*
X011702Y012791D01*
X011831Y012921D01*
X011901Y013090D01*
X011901Y013273D01*
X011831Y013442D01*
X011702Y013571D01*
X011533Y013641D01*
X010830Y013641D01*
X010661Y013571D01*
X010531Y013442D01*
X010461Y013273D01*
X010461Y013090D01*
X010531Y012921D01*
X010661Y012791D01*
X010830Y012721D01*
X011533Y012721D01*
X011775Y012865D02*
X013401Y012865D01*
X013401Y013023D02*
X011874Y013023D01*
X011901Y013182D02*
X013401Y013182D01*
X013401Y013341D02*
X011873Y013341D01*
X011774Y013499D02*
X013401Y013499D01*
X013401Y013658D02*
X010461Y013658D01*
X010461Y013816D02*
X010636Y013816D01*
X010661Y013791D02*
X010830Y013721D01*
X011533Y013721D01*
X011702Y013791D01*
X011831Y013921D01*
X011901Y014090D01*
X011901Y014273D01*
X011831Y014442D01*
X011702Y014571D01*
X011533Y014641D01*
X010830Y014641D01*
X010661Y014571D01*
X010531Y014442D01*
X010461Y014273D01*
X010461Y014090D01*
X010531Y013921D01*
X010661Y013791D01*
X010509Y013975D02*
X010461Y013975D01*
X010461Y014133D02*
X010461Y014133D01*
X010461Y014292D02*
X010469Y014292D01*
X010461Y014450D02*
X010540Y014450D01*
X010461Y014609D02*
X010751Y014609D01*
X010818Y014752D02*
X010752Y014774D01*
X010691Y014805D01*
X010635Y014846D01*
X010586Y014895D01*
X010545Y014951D01*
X010514Y015012D01*
X010492Y015078D01*
X010481Y015147D01*
X010481Y015181D01*
X011181Y015181D01*
X011182Y015181D01*
X011182Y015182D01*
X011181Y015182D01*
X011181Y015621D01*
X010887Y015621D01*
X010818Y015611D01*
X010752Y015589D01*
X010691Y015558D01*
X010635Y015517D01*
X010586Y015468D01*
X010545Y015412D01*
X010514Y015350D01*
X010492Y015284D01*
X010481Y015216D01*
X010481Y015182D01*
X011181Y015182D01*
X011181Y015181D01*
X011181Y014741D01*
X010887Y014741D01*
X010818Y014752D01*
X010772Y014767D02*
X010461Y014767D01*
X010461Y014926D02*
X010563Y014926D01*
X010491Y015084D02*
X010461Y015084D01*
X010461Y015243D02*
X010486Y015243D01*
X010461Y015402D02*
X010540Y015402D01*
X010461Y015560D02*
X010696Y015560D01*
X010461Y015719D02*
X011303Y015719D01*
X011182Y015560D02*
X011181Y015560D01*
X011181Y015402D02*
X011182Y015402D01*
X011181Y015243D02*
X011182Y015243D01*
X011182Y015181D02*
X011881Y015181D01*
X011881Y015147D01*
X011871Y015078D01*
X011849Y015012D01*
X011818Y014951D01*
X011777Y014895D01*
X011728Y014846D01*
X011672Y014805D01*
X011610Y014774D01*
X011544Y014752D01*
X011476Y014741D01*
X011182Y014741D01*
X011182Y015181D01*
X011181Y015084D02*
X011182Y015084D01*
X011181Y014926D02*
X011182Y014926D01*
X011181Y014767D02*
X011182Y014767D01*
X011591Y014767D02*
X013401Y014767D01*
X013401Y014609D02*
X011611Y014609D01*
X011823Y014450D02*
X013401Y014450D01*
X013401Y014292D02*
X011894Y014292D01*
X011901Y014133D02*
X013401Y014133D01*
X013401Y013975D02*
X011854Y013975D01*
X011727Y013816D02*
X013401Y013816D01*
X013401Y012706D02*
X010461Y012706D01*
X010461Y012548D02*
X010637Y012548D01*
X010510Y012389D02*
X010461Y012389D01*
X010461Y012231D02*
X010461Y012231D01*
X010461Y012072D02*
X010469Y012072D01*
X010461Y011914D02*
X010539Y011914D01*
X010461Y011755D02*
X010749Y011755D01*
X010722Y011597D02*
X010461Y011597D01*
X010461Y011438D02*
X010530Y011438D01*
X010464Y011279D02*
X010461Y011279D01*
X010461Y011121D02*
X010461Y011121D01*
X010461Y010962D02*
X010514Y010962D01*
X010461Y010804D02*
X010648Y010804D01*
X009681Y010181D02*
X009681Y013681D01*
X009461Y014133D02*
X009901Y014133D01*
X009901Y014292D02*
X009461Y014292D01*
X009485Y014450D02*
X009901Y014450D01*
X009901Y014609D02*
X009560Y014609D01*
X009555Y014767D02*
X009901Y014767D01*
X009901Y014926D02*
X009472Y014926D01*
X009181Y014681D02*
X009181Y003181D01*
X008951Y002877D02*
X008787Y002877D01*
X008762Y003511D02*
X008901Y003511D01*
X008901Y003669D02*
X007461Y003669D01*
X007461Y003511D02*
X007600Y003511D01*
X007494Y003352D02*
X007461Y003352D01*
X007461Y003194D02*
X007461Y003194D01*
X007461Y003035D02*
X007484Y003035D01*
X007461Y002877D02*
X007576Y002877D01*
X007461Y002718D02*
X009803Y002718D01*
X009822Y002560D02*
X007461Y002560D01*
X007461Y002401D02*
X009927Y002401D01*
X010181Y002681D02*
X010181Y004181D01*
X010181Y016181D01*
X008681Y017056D01*
X008394Y017304D02*
X007768Y017304D01*
X007760Y017296D02*
X007817Y017352D01*
X007863Y017417D01*
X007899Y017488D01*
X007924Y017563D01*
X007936Y017642D01*
X007936Y017681D01*
X007432Y017681D01*
X007432Y017682D01*
X007936Y017682D01*
X007936Y017721D01*
X007924Y017800D01*
X007899Y017875D01*
X007863Y017946D01*
X007817Y018010D01*
X007760Y018067D01*
X007696Y018113D01*
X007625Y018149D01*
X007603Y018156D01*
X007839Y018156D01*
X007956Y018274D01*
X007956Y019089D01*
X007839Y019206D01*
X007024Y019206D01*
X006906Y019089D01*
X006906Y018274D01*
X007024Y018156D01*
X007259Y018156D01*
X007238Y018149D01*
X007167Y018113D01*
X007102Y018067D01*
X007046Y018010D01*
X006999Y017946D01*
X006963Y017875D01*
X006939Y017800D01*
X006926Y017721D01*
X006926Y017682D01*
X007431Y017682D01*
X007431Y017681D01*
X006926Y017681D01*
X006926Y017642D01*
X006939Y017563D01*
X006963Y017488D01*
X006999Y017417D01*
X007046Y017352D01*
X007102Y017296D01*
X007167Y017249D01*
X007238Y017213D01*
X007313Y017189D01*
X007392Y017176D01*
X007431Y017176D01*
X007431Y017681D01*
X007432Y017681D01*
X007432Y017176D01*
X007471Y017176D01*
X007550Y017189D01*
X007625Y017213D01*
X007696Y017249D01*
X007760Y017296D01*
X007887Y017463D02*
X009403Y017463D01*
X009366Y017499D02*
X009366Y017681D01*
X009806Y017681D01*
X009806Y017682D01*
X009806Y018121D01*
X009624Y018121D01*
X009366Y017864D01*
X009366Y017682D01*
X009806Y017682D01*
X009807Y017682D01*
X009807Y018121D01*
X009989Y018121D01*
X010246Y017864D01*
X010246Y017682D01*
X009807Y017682D01*
X009807Y017681D01*
X010246Y017681D01*
X010246Y017499D01*
X009989Y017241D01*
X009807Y017241D01*
X009807Y017681D01*
X009806Y017681D01*
X009806Y017241D01*
X009624Y017241D01*
X009366Y017499D01*
X009366Y017621D02*
X007933Y017621D01*
X007927Y017780D02*
X009366Y017780D01*
X009441Y017938D02*
X007867Y017938D01*
X007719Y018097D02*
X009600Y018097D01*
X009616Y018221D02*
X009997Y018221D01*
X010266Y018491D01*
X010266Y018872D01*
X009997Y019141D01*
X009616Y019141D01*
X009346Y018872D01*
X009346Y018491D01*
X009616Y018221D01*
X009582Y018255D02*
X007938Y018255D01*
X007956Y018414D02*
X009423Y018414D01*
X009346Y018572D02*
X007956Y018572D01*
X007956Y018731D02*
X009346Y018731D01*
X009364Y018890D02*
X007956Y018890D01*
X007956Y019048D02*
X009523Y019048D01*
X010090Y019048D02*
X011398Y019048D01*
X011491Y019141D02*
X011221Y018872D01*
X011221Y018491D01*
X011491Y018221D01*
X011872Y018221D01*
X012141Y018491D01*
X012141Y018872D01*
X011872Y019141D01*
X011491Y019141D01*
X011239Y018890D02*
X010249Y018890D01*
X010266Y018731D02*
X011221Y018731D01*
X011221Y018572D02*
X010266Y018572D01*
X010189Y018414D02*
X011298Y018414D01*
X011457Y018255D02*
X010031Y018255D01*
X010013Y018097D02*
X011446Y018097D01*
X011288Y017938D02*
X010172Y017938D01*
X010246Y017780D02*
X011221Y017780D01*
X011221Y017621D02*
X010246Y017621D01*
X010210Y017463D02*
X011250Y017463D01*
X011401Y017304D02*
X010051Y017304D01*
X009807Y017304D02*
X009806Y017304D01*
X009806Y017463D02*
X009807Y017463D01*
X009806Y017621D02*
X009807Y017621D01*
X009806Y017780D02*
X009807Y017780D01*
X009806Y017938D02*
X009807Y017938D01*
X009806Y018097D02*
X009807Y018097D01*
X009561Y017304D02*
X008969Y017304D01*
X009084Y017146D02*
X011401Y017146D01*
X011401Y016987D02*
X009356Y016987D01*
X009628Y016828D02*
X011333Y016828D01*
X011303Y016670D02*
X009900Y016670D01*
X010374Y016511D02*
X010601Y016511D01*
X010575Y015877D02*
X010461Y015877D01*
X009901Y015877D02*
X008788Y015877D01*
X008831Y015921D02*
X008901Y016090D01*
X008901Y016273D01*
X008831Y016442D01*
X008702Y016571D01*
X008533Y016641D01*
X007830Y016641D01*
X007661Y016571D01*
X007531Y016442D01*
X007461Y016273D01*
X007461Y016090D01*
X007531Y015921D01*
X007661Y015791D01*
X007830Y015721D01*
X008533Y015721D01*
X008702Y015791D01*
X008831Y015921D01*
X008879Y016036D02*
X009832Y016036D01*
X009604Y016194D02*
X008901Y016194D01*
X008868Y016353D02*
X009332Y016353D01*
X009060Y016511D02*
X008762Y016511D01*
X008788Y016670D02*
X006260Y016670D01*
X006267Y016680D02*
X006301Y016747D01*
X006325Y016819D01*
X006336Y016894D01*
X006336Y016911D01*
X005577Y016911D01*
X005577Y016951D01*
X006336Y016951D01*
X006336Y016969D01*
X006325Y017044D01*
X006301Y017116D01*
X006267Y017183D01*
X006223Y017244D01*
X006169Y017298D01*
X006108Y017342D01*
X006041Y017376D01*
X005969Y017400D01*
X005894Y017411D01*
X005576Y017411D01*
X005576Y016952D01*
X005536Y016952D01*
X005536Y017411D01*
X005219Y017411D01*
X005144Y017400D01*
X005072Y017376D01*
X005005Y017342D01*
X004944Y017298D01*
X004908Y017262D01*
X004925Y017556D01*
X004973Y017508D01*
X005157Y017431D01*
X005956Y017431D01*
X006140Y017508D01*
X006280Y017648D01*
X006356Y017832D01*
X006356Y018031D01*
X006280Y018215D01*
X006140Y018355D01*
X005956Y018431D01*
X005403Y018431D01*
X005403Y018431D01*
X005956Y018431D01*
X006140Y018508D01*
X006280Y018648D01*
X006356Y018832D01*
X006356Y019031D01*
X006280Y019215D01*
X006140Y019355D01*
X006064Y019386D01*
X019386Y019386D01*
X019386Y000661D01*
X018915Y000661D01*
X019004Y000698D01*
X019165Y000859D01*
X019251Y001068D01*
X019251Y001295D01*
X019165Y001504D01*
X019004Y001665D01*
X018935Y001693D01*
X018970Y001711D01*
X019040Y001762D01*
X019101Y001823D01*
X019152Y001893D01*
X019191Y001970D01*
X019218Y002053D01*
X019231Y002138D01*
X019231Y002161D01*
X018702Y002161D01*
X018702Y002201D01*
X019231Y002201D01*
X019231Y002225D01*
X019218Y002310D01*
X019191Y002393D01*
X019152Y002470D01*
X019101Y002540D01*
X019040Y002601D01*
X018970Y002652D01*
X018935Y002669D01*
X019004Y002698D01*
X019165Y002859D01*
X019251Y003068D01*
X019251Y003295D01*
X019165Y003504D01*
X019057Y003611D01*
X019134Y003611D01*
X019251Y003729D01*
X019251Y004634D01*
X019134Y004751D01*
X018961Y004751D01*
X018961Y004926D01*
X019002Y004967D01*
X019060Y005106D01*
X019060Y005257D01*
X019002Y005396D01*
X018896Y005502D01*
X018757Y005560D01*
X018606Y005560D01*
X018467Y005502D01*
X018361Y005396D01*
X018303Y005257D01*
X018303Y005106D01*
X018361Y004967D01*
X018401Y004926D01*
X018401Y004751D01*
X018229Y004751D01*
X018111Y004634D01*
X018111Y003729D01*
X018229Y003611D01*
X018305Y003611D01*
X018198Y003504D01*
X018111Y003295D01*
X018111Y003068D01*
X018198Y002859D01*
X018359Y002698D01*
X018428Y002669D01*
X018393Y002652D01*
X018323Y002601D01*
X018262Y002540D01*
X018211Y002470D01*
X018172Y002393D01*
X018145Y002310D01*
X018131Y002225D01*
X018131Y002201D01*
X018661Y002201D01*
X018661Y002161D01*
X018131Y002161D01*
X018131Y002138D01*
X018145Y002053D01*
X018172Y001970D01*
X018211Y001893D01*
X018262Y001823D01*
X018323Y001762D01*
X018393Y001711D01*
X018428Y001693D01*
X018359Y001665D01*
X018198Y001504D01*
X018111Y001295D01*
X018111Y001068D01*
X018198Y000859D01*
X018359Y000698D01*
X018447Y000661D01*
X008415Y000661D01*
X008504Y000698D01*
X008665Y000859D01*
X008751Y001068D01*
X008751Y001295D01*
X008665Y001504D01*
X008504Y001665D01*
X008295Y001751D01*
X008068Y001751D01*
X007859Y001665D01*
X007698Y001504D01*
X007681Y001464D01*
X007665Y001504D01*
X007504Y001665D01*
X007461Y001682D01*
X007461Y005426D01*
X007502Y005467D01*
X007560Y005606D01*
X007560Y005757D01*
X007502Y005896D01*
X007396Y006002D01*
X007257Y006060D01*
X007106Y006060D01*
X006967Y006002D01*
X006861Y005896D01*
X006803Y005757D01*
X006803Y005606D01*
X006861Y005467D01*
X006901Y005426D01*
X006901Y001682D01*
X006859Y001665D01*
X006698Y001504D01*
X006681Y001464D01*
X006665Y001504D01*
X006504Y001665D01*
X006461Y001682D01*
X006461Y006301D01*
X006502Y006342D01*
X006560Y006481D01*
X006560Y006632D01*
X006516Y006737D01*
X006533Y006737D01*
X006702Y006807D01*
X006831Y006937D01*
X006901Y007106D01*
X006901Y007289D01*
X006831Y007458D01*
X006702Y007587D01*
X006533Y007657D01*
X005830Y007657D01*
X005661Y007587D01*
X005531Y007458D01*
X005461Y007289D01*
X005461Y007106D01*
X005531Y006937D01*
X005661Y006807D01*
X005830Y006737D01*
X005847Y006737D01*
X005803Y006632D01*
X005803Y006481D01*
X005861Y006342D01*
X005901Y006301D01*
X005901Y001682D01*
X005859Y001665D01*
X005698Y001504D01*
X005669Y001435D01*
X005652Y001470D01*
X005601Y001540D01*
X005540Y001601D01*
X005470Y001652D01*
X005393Y001691D01*
X005310Y001718D01*
X005225Y001731D01*
X005201Y001731D01*
X005201Y001202D01*
X005161Y001202D01*
X005161Y001731D01*
X005138Y001731D01*
X005053Y001718D01*
X004970Y001691D01*
X004893Y001652D01*
X004823Y001601D01*
X004762Y001540D01*
X004711Y001470D01*
X004693Y001435D01*
X004665Y001504D01*
X004504Y001665D01*
X004295Y001751D01*
X004068Y001751D01*
X003859Y001665D01*
X003751Y001557D01*
X003751Y001634D01*
X003634Y001751D01*
X002729Y001751D01*
X002611Y001634D01*
X002611Y000729D01*
X002679Y000661D01*
X000915Y000661D01*
X001004Y000698D01*
X001165Y000859D01*
X001251Y001068D01*
X001251Y001295D01*
X001165Y001504D01*
X001004Y001665D01*
X000935Y001693D01*
X000970Y001711D01*
X001040Y001762D01*
X001101Y001823D01*
X001152Y001893D01*
X001191Y001970D01*
X001218Y002053D01*
X001231Y002138D01*
X001231Y002161D01*
X000702Y002161D01*
X000702Y002201D01*
X001231Y002201D01*
X001231Y002225D01*
X001218Y002310D01*
X001191Y002393D01*
X001152Y002470D01*
X001101Y002540D01*
X001040Y002601D01*
X000970Y002652D01*
X000935Y002669D01*
X001004Y002698D01*
X001165Y002859D01*
X001251Y003068D01*
X001251Y003295D01*
X001165Y003504D01*
X001057Y003611D01*
X001134Y003611D01*
X001251Y003729D01*
X001251Y004355D01*
X001699Y004803D01*
X001757Y004803D01*
X001896Y004861D01*
X002002Y004967D01*
X002060Y005106D01*
X002060Y005257D01*
X002002Y005396D01*
X001896Y005502D01*
X001757Y005560D01*
X001606Y005560D01*
X001467Y005502D01*
X001361Y005396D01*
X001303Y005257D01*
X001303Y005199D01*
X000855Y004751D01*
X000661Y004751D01*
X000661Y005611D01*
X000795Y005611D01*
X001004Y005698D01*
X001165Y005859D01*
X001251Y006068D01*
X001251Y006295D01*
X001165Y006504D01*
X001004Y006665D01*
X000964Y006681D01*
X001004Y006698D01*
X001165Y006859D01*
X001251Y007068D01*
X001251Y007295D01*
X001165Y007504D01*
X001004Y007665D01*
X000964Y007681D01*
X001004Y007698D01*
X001165Y007859D01*
X001251Y008068D01*
X001251Y008295D01*
X001234Y008338D01*
X002401Y009506D01*
X002401Y002996D01*
X002396Y003002D01*
X002257Y003060D01*
X002106Y003060D01*
X001967Y003002D01*
X001861Y002896D01*
X001803Y002757D01*
X001803Y002606D01*
X001861Y002467D01*
X001901Y002426D01*
X001901Y001437D01*
X001861Y001396D01*
X001803Y001257D01*
X001803Y001106D01*
X001861Y000967D01*
X001967Y000861D01*
X002106Y000803D01*
X002257Y000803D01*
X002396Y000861D01*
X002502Y000967D01*
X002560Y001106D01*
X002560Y001257D01*
X002502Y001396D01*
X002461Y001437D01*
X002461Y001866D01*
X002467Y001861D01*
X002606Y001803D01*
X002757Y001803D01*
X002896Y001861D01*
X003002Y001967D01*
X003060Y002106D01*
X003060Y002257D01*
X003002Y002396D01*
X002961Y002437D01*
X002961Y003779D01*
X002999Y003741D01*
X003181Y003741D01*
X003181Y004181D01*
X003182Y004181D01*
X003182Y004182D01*
X003181Y004182D01*
X003181Y004621D01*
X003182Y004621D01*
X003182Y004182D01*
X003621Y004182D01*
X003621Y004364D01*
X003364Y004621D01*
X003970Y004621D01*
X003991Y004641D02*
X003721Y004372D01*
X003721Y003991D01*
X003901Y003811D01*
X003901Y003626D01*
X003944Y003523D01*
X004023Y003444D01*
X004126Y003401D01*
X004237Y003401D01*
X004340Y003444D01*
X004419Y003523D01*
X004461Y003626D01*
X004461Y003811D01*
X004641Y003991D01*
X004641Y004372D01*
X004372Y004641D01*
X003991Y004641D01*
X003812Y004462D02*
X003523Y004462D01*
X003621Y004304D02*
X003721Y004304D01*
X003621Y004181D02*
X003182Y004181D01*
X003182Y003741D01*
X003364Y003741D01*
X003621Y003999D01*
X003621Y004181D01*
X003621Y004145D02*
X003721Y004145D01*
X003726Y003986D02*
X003609Y003986D01*
X003450Y003828D02*
X003884Y003828D01*
X003901Y003669D02*
X002961Y003669D01*
X002961Y003511D02*
X003956Y003511D01*
X004181Y003681D02*
X004181Y004181D01*
X004478Y003828D02*
X005901Y003828D01*
X005901Y003986D02*
X004637Y003986D01*
X004641Y004145D02*
X005901Y004145D01*
X005901Y004304D02*
X004641Y004304D01*
X004551Y004462D02*
X005901Y004462D01*
X005901Y004621D02*
X004393Y004621D01*
X004926Y004901D02*
X004967Y004861D01*
X005106Y004803D01*
X005257Y004803D01*
X005396Y004861D01*
X005502Y004967D01*
X005560Y005106D01*
X005560Y005257D01*
X005502Y005396D01*
X005396Y005502D01*
X005257Y005560D01*
X005106Y005560D01*
X005027Y005527D01*
X005060Y005606D01*
X005060Y005757D01*
X005002Y005896D01*
X004961Y005937D01*
X004961Y011866D01*
X004967Y011861D01*
X005106Y011803D01*
X005257Y011803D01*
X005276Y011811D01*
X005276Y011802D01*
X005096Y011622D01*
X005096Y011241D01*
X005366Y010971D01*
X005747Y010971D01*
X006016Y011241D01*
X006016Y011622D01*
X005836Y011802D01*
X005836Y015801D01*
X005877Y015842D01*
X005935Y015981D01*
X005935Y016132D01*
X005877Y016271D01*
X005771Y016377D01*
X005632Y016435D01*
X005481Y016435D01*
X005342Y016377D01*
X005236Y016271D01*
X005178Y016132D01*
X005178Y015981D01*
X005236Y015842D01*
X005276Y015801D01*
X005276Y013677D01*
X005257Y013685D01*
X005106Y013685D01*
X004967Y013627D01*
X004961Y013621D01*
X004961Y013926D01*
X005002Y013967D01*
X005060Y014106D01*
X005060Y014257D01*
X005002Y014396D01*
X004896Y014502D01*
X004892Y014504D01*
X004935Y014606D01*
X004935Y014757D01*
X004877Y014896D01*
X004836Y014937D01*
X004836Y015801D01*
X004877Y015842D01*
X004935Y015981D01*
X004935Y016132D01*
X004877Y016271D01*
X004851Y016297D01*
X004871Y016645D01*
X004890Y016619D01*
X004944Y016565D01*
X005005Y016521D01*
X005072Y016487D01*
X005144Y016463D01*
X005219Y016451D01*
X005536Y016451D01*
X005536Y016911D01*
X005576Y016911D01*
X005576Y016451D01*
X005894Y016451D01*
X005969Y016463D01*
X006041Y016487D01*
X006108Y016521D01*
X006169Y016565D01*
X006223Y016619D01*
X006267Y016680D01*
X006326Y016828D02*
X008374Y016828D01*
X008303Y016987D02*
X006334Y016987D01*
X006286Y017146D02*
X008309Y017146D01*
X007432Y017304D02*
X007431Y017304D01*
X007431Y017463D02*
X007432Y017463D01*
X007431Y017621D02*
X007432Y017621D01*
X007095Y017304D02*
X006160Y017304D01*
X006031Y017463D02*
X006976Y017463D01*
X006930Y017621D02*
X006253Y017621D01*
X006335Y017780D02*
X006936Y017780D01*
X006996Y017938D02*
X006356Y017938D01*
X006329Y018097D02*
X007144Y018097D01*
X006925Y018255D02*
X006240Y018255D01*
X005998Y018414D02*
X006906Y018414D01*
X006906Y018572D02*
X006205Y018572D01*
X006315Y018731D02*
X006906Y018731D01*
X006906Y018890D02*
X006356Y018890D01*
X006349Y019048D02*
X006906Y019048D01*
X006284Y019207D02*
X012684Y019207D01*
X012611Y019048D02*
X011965Y019048D01*
X012124Y018890D02*
X012611Y018890D01*
X012611Y018731D02*
X012141Y018731D01*
X012141Y018572D02*
X012611Y018572D01*
X012611Y018414D02*
X012064Y018414D01*
X011906Y018255D02*
X012611Y018255D01*
X012901Y018097D02*
X011916Y018097D01*
X012075Y017938D02*
X012901Y017938D01*
X012901Y017780D02*
X012141Y017780D01*
X012141Y017621D02*
X012901Y017621D01*
X012901Y017463D02*
X012113Y017463D01*
X011961Y017304D02*
X012901Y017304D01*
X012750Y017146D02*
X011961Y017146D01*
X011961Y016987D02*
X012591Y016987D01*
X012433Y016828D02*
X012030Y016828D01*
X012060Y016670D02*
X012274Y016670D01*
X012115Y016511D02*
X012021Y016511D01*
X011957Y016353D02*
X011877Y016353D01*
X011681Y016681D02*
X011681Y017681D01*
X012907Y016511D02*
X013221Y016511D01*
X013221Y016670D02*
X013066Y016670D01*
X013359Y016353D02*
X012749Y016353D01*
X012590Y016194D02*
X017534Y016194D01*
X018173Y016036D02*
X018315Y016036D01*
X018303Y015877D02*
X018185Y015877D01*
X018128Y015719D02*
X018360Y015719D01*
X018410Y015560D02*
X018086Y015560D01*
X018086Y015402D02*
X018251Y015402D01*
X018221Y015243D02*
X018086Y015243D01*
X018086Y015084D02*
X018221Y015084D01*
X018286Y014926D02*
X018086Y014926D01*
X018086Y014767D02*
X018445Y014767D01*
X018491Y014641D02*
X018221Y014372D01*
X018221Y013991D01*
X018491Y013721D01*
X018872Y013721D01*
X019141Y013991D01*
X019141Y014372D01*
X018872Y014641D01*
X018491Y014641D01*
X018458Y014609D02*
X018086Y014609D01*
X018086Y014450D02*
X018300Y014450D01*
X018221Y014292D02*
X018086Y014292D01*
X018086Y014133D02*
X018221Y014133D01*
X018238Y013975D02*
X018086Y013975D01*
X018086Y013816D02*
X018396Y013816D01*
X018086Y013658D02*
X019386Y013658D01*
X019386Y013816D02*
X018967Y013816D01*
X019125Y013975D02*
X019386Y013975D01*
X019386Y014133D02*
X019141Y014133D01*
X019141Y014292D02*
X019386Y014292D01*
X019386Y014450D02*
X019063Y014450D01*
X018904Y014609D02*
X019386Y014609D01*
X019386Y014767D02*
X018918Y014767D01*
X019076Y014926D02*
X019386Y014926D01*
X019386Y015084D02*
X019141Y015084D01*
X019141Y015243D02*
X019386Y015243D01*
X019386Y015402D02*
X019112Y015402D01*
X018953Y015560D02*
X019386Y015560D01*
X019386Y015719D02*
X019003Y015719D01*
X019060Y015877D02*
X019386Y015877D01*
X019386Y016036D02*
X019048Y016036D01*
X018961Y016194D02*
X019386Y016194D01*
X019386Y016353D02*
X018961Y016353D01*
X018961Y016511D02*
X019386Y016511D01*
X019386Y016670D02*
X018961Y016670D01*
X018961Y016828D02*
X019386Y016828D01*
X019386Y016987D02*
X018961Y016987D01*
X018961Y017146D02*
X019386Y017146D01*
X019386Y017304D02*
X018961Y017304D01*
X018961Y017463D02*
X019386Y017463D01*
X019386Y017621D02*
X018961Y017621D01*
X018961Y017780D02*
X019386Y017780D01*
X019386Y017938D02*
X018961Y017938D01*
X018961Y018097D02*
X019386Y018097D01*
X019386Y018255D02*
X019061Y018255D01*
X019188Y018414D02*
X019386Y018414D01*
X019386Y018572D02*
X019251Y018572D01*
X019251Y018731D02*
X019386Y018731D01*
X019386Y018890D02*
X019212Y018890D01*
X019121Y019048D02*
X019386Y019048D01*
X019386Y019207D02*
X018903Y019207D01*
X018460Y019207D02*
X017903Y019207D01*
X018121Y019048D02*
X018242Y019048D01*
X018681Y018681D02*
X018681Y015931D01*
X018401Y017146D02*
X013461Y017146D01*
X013461Y017304D02*
X018401Y017304D01*
X018401Y017463D02*
X013461Y017463D01*
X013461Y017621D02*
X018401Y017621D01*
X018401Y017780D02*
X013461Y017780D01*
X013461Y017938D02*
X018401Y017938D01*
X018401Y018097D02*
X013461Y018097D01*
X013751Y018255D02*
X013801Y018255D01*
X014561Y018255D02*
X014832Y018255D01*
X014700Y018414D02*
X014688Y018414D01*
X015161Y018414D02*
X015201Y018414D01*
X015201Y018572D02*
X015161Y018572D01*
X015161Y018731D02*
X015201Y018731D01*
X015201Y018890D02*
X015161Y018890D01*
X015161Y019048D02*
X015201Y019048D01*
X015201Y019207D02*
X015161Y019207D01*
X015018Y019207D02*
X014403Y019207D01*
X014621Y019048D02*
X014770Y019048D01*
X015345Y019207D02*
X016184Y019207D01*
X016111Y019048D02*
X015593Y019048D01*
X015692Y018890D02*
X016111Y018890D01*
X016111Y018731D02*
X015730Y018731D01*
X015721Y018572D02*
X016111Y018572D01*
X016111Y018414D02*
X015662Y018414D01*
X015531Y018255D02*
X016111Y018255D01*
X015201Y018255D02*
X015161Y018255D01*
X013960Y019207D02*
X013679Y019207D01*
X013181Y018681D02*
X013181Y017181D01*
X011681Y015681D01*
X011937Y015402D02*
X013401Y015402D01*
X013401Y015243D02*
X011877Y015243D01*
X011871Y015084D02*
X013401Y015084D01*
X013401Y014926D02*
X011800Y014926D01*
X012041Y015560D02*
X013322Y015560D01*
X013303Y015719D02*
X012115Y015719D01*
X012273Y015877D02*
X013353Y015877D01*
X013548Y016036D02*
X012432Y016036D01*
X010589Y013499D02*
X010461Y013499D01*
X010461Y013341D02*
X010489Y013341D01*
X010461Y013182D02*
X010461Y013182D01*
X010461Y013023D02*
X010489Y013023D01*
X010461Y012865D02*
X010587Y012865D01*
X008901Y012865D02*
X008775Y012865D01*
X008831Y012921D02*
X008702Y012791D01*
X008533Y012721D01*
X008117Y012721D01*
X008037Y012641D01*
X008533Y012641D01*
X008702Y012571D01*
X008831Y012442D01*
X008901Y012273D01*
X008901Y012090D01*
X008831Y011921D01*
X008702Y011791D01*
X008533Y011721D01*
X007830Y011721D01*
X007661Y011791D01*
X007531Y011921D01*
X007507Y011979D01*
X007502Y011967D01*
X007461Y011926D01*
X007461Y010937D01*
X007501Y010897D01*
X007530Y010925D01*
X007461Y011090D01*
X007461Y011273D01*
X007531Y011442D01*
X007661Y011571D01*
X007830Y011641D01*
X008533Y011641D01*
X008702Y011571D01*
X008831Y011442D01*
X008901Y011273D01*
X008901Y011090D01*
X008831Y010921D01*
X008702Y010791D01*
X008533Y010721D01*
X008117Y010721D01*
X008037Y010641D01*
X008533Y010641D01*
X008702Y010571D01*
X008831Y010442D01*
X008901Y010273D01*
X008901Y010090D01*
X008831Y009921D01*
X008702Y009791D01*
X008533Y009721D01*
X007830Y009721D01*
X007661Y009791D01*
X007531Y009921D01*
X007507Y009979D01*
X007502Y009967D01*
X007396Y009861D01*
X007257Y009803D01*
X007106Y009803D01*
X006967Y009861D01*
X006861Y009967D01*
X006803Y010106D01*
X006803Y010257D01*
X006861Y010396D01*
X006896Y010431D01*
X006861Y010467D01*
X006803Y010606D01*
X006803Y010757D01*
X006861Y010896D01*
X006901Y010937D01*
X006901Y011154D01*
X006739Y010991D01*
X006557Y010991D01*
X006557Y011431D01*
X006556Y011431D01*
X006556Y010991D01*
X006374Y010991D01*
X006116Y011249D01*
X006116Y011431D01*
X006556Y011431D01*
X006556Y011432D01*
X006556Y011871D01*
X006374Y011871D01*
X006116Y011614D01*
X006116Y011432D01*
X006556Y011432D01*
X006557Y011432D01*
X006557Y011871D01*
X006739Y011871D01*
X006901Y011709D01*
X006901Y011926D01*
X006861Y011967D01*
X006803Y012106D01*
X006803Y012257D01*
X006836Y012336D01*
X006757Y012303D01*
X006606Y012303D01*
X006467Y012361D01*
X006361Y012467D01*
X006303Y012606D01*
X006303Y012757D01*
X006361Y012896D01*
X006401Y012936D01*
X006382Y012928D01*
X006231Y012928D01*
X006092Y012986D01*
X005986Y013092D01*
X005928Y013231D01*
X005928Y013382D01*
X005986Y013521D01*
X006092Y013627D01*
X006231Y013685D01*
X006289Y013685D01*
X006466Y013862D01*
X006361Y013967D01*
X006303Y014106D01*
X006303Y014257D01*
X006361Y014396D01*
X006401Y014437D01*
X006401Y015926D01*
X006361Y015967D01*
X006303Y016106D01*
X006303Y016257D01*
X006361Y016396D01*
X006467Y016502D01*
X006606Y016560D01*
X006757Y016560D01*
X006896Y016502D01*
X007002Y016396D01*
X007060Y016257D01*
X007060Y016106D01*
X007002Y015967D01*
X006961Y015926D01*
X006961Y014437D01*
X007001Y014397D01*
X007023Y014419D01*
X007126Y014461D01*
X007237Y014461D01*
X007551Y014461D01*
X007661Y014571D01*
X007830Y014641D01*
X008533Y014641D01*
X008702Y014571D01*
X008831Y014442D01*
X008901Y014273D01*
X008901Y014090D01*
X008831Y013921D01*
X008702Y013791D01*
X008533Y013721D01*
X007830Y013721D01*
X007661Y013791D01*
X007551Y013901D01*
X007297Y013901D01*
X006685Y013289D01*
X006685Y013231D01*
X006627Y013092D01*
X006587Y013052D01*
X006606Y013060D01*
X006757Y013060D01*
X006896Y013002D01*
X006937Y012961D01*
X007515Y012961D01*
X007461Y013090D01*
X007461Y013273D01*
X007531Y013442D01*
X007661Y013571D01*
X007830Y013641D01*
X008533Y013641D01*
X008702Y013571D01*
X008831Y013442D01*
X008901Y013273D01*
X008901Y013090D01*
X008831Y012921D01*
X008874Y013023D02*
X008901Y013023D01*
X008901Y013182D02*
X008901Y013182D01*
X008901Y013341D02*
X008873Y013341D01*
X008901Y013499D02*
X008774Y013499D01*
X008901Y013658D02*
X007054Y013658D01*
X007212Y013816D02*
X007636Y013816D01*
X007589Y013499D02*
X006895Y013499D01*
X006736Y013341D02*
X007489Y013341D01*
X007461Y013182D02*
X006664Y013182D01*
X006845Y013023D02*
X007489Y013023D01*
X007681Y012681D02*
X008181Y013181D01*
X008102Y012706D02*
X008901Y012706D01*
X008901Y012548D02*
X008726Y012548D01*
X008853Y012389D02*
X008901Y012389D01*
X008901Y012231D02*
X008901Y012231D01*
X008894Y012072D02*
X008901Y012072D01*
X008901Y011914D02*
X008824Y011914D01*
X008901Y011755D02*
X008614Y011755D01*
X008641Y011597D02*
X008901Y011597D01*
X008901Y011438D02*
X008833Y011438D01*
X008899Y011279D02*
X008901Y011279D01*
X008901Y011121D02*
X008901Y011121D01*
X008901Y010962D02*
X008849Y010962D01*
X008901Y010804D02*
X008714Y010804D01*
X008901Y010645D02*
X008041Y010645D01*
X008181Y011181D02*
X007181Y010181D01*
X006833Y010328D02*
X004961Y010328D01*
X004961Y010170D02*
X006803Y010170D01*
X006842Y010011D02*
X004961Y010011D01*
X004961Y009853D02*
X006986Y009853D01*
X007106Y009560D02*
X006967Y009502D01*
X006861Y009396D01*
X006852Y009376D01*
X006831Y009426D01*
X006702Y009556D01*
X006533Y009626D01*
X005830Y009626D01*
X005661Y009556D01*
X005531Y009426D01*
X005461Y009257D01*
X005461Y009074D01*
X005531Y008905D01*
X005661Y008776D01*
X005830Y008706D01*
X006533Y008706D01*
X006702Y008776D01*
X006831Y008905D01*
X006859Y008971D01*
X006861Y008967D01*
X006967Y008861D01*
X007106Y008803D01*
X007164Y008803D01*
X007530Y008437D01*
X007461Y008273D01*
X007461Y008090D01*
X007531Y007921D01*
X007661Y007791D01*
X007830Y007721D01*
X008533Y007721D01*
X008702Y007791D01*
X008831Y007921D01*
X008901Y008090D01*
X008901Y008273D01*
X008831Y008442D01*
X008702Y008571D01*
X008533Y008641D01*
X008117Y008641D01*
X008017Y008741D01*
X008181Y008741D01*
X008181Y009181D01*
X008182Y009181D01*
X008182Y009182D01*
X008181Y009182D01*
X008181Y009621D01*
X007887Y009621D01*
X007818Y009611D01*
X007752Y009589D01*
X007691Y009558D01*
X007635Y009517D01*
X007586Y009468D01*
X007545Y009412D01*
X007518Y009358D01*
X007502Y009396D01*
X007396Y009502D01*
X007257Y009560D01*
X007106Y009560D01*
X007047Y009535D02*
X006722Y009535D01*
X006852Y009377D02*
X006853Y009377D01*
X007181Y009181D02*
X008181Y008181D01*
X007661Y007791D02*
X006645Y007791D01*
X006672Y007805D02*
X006728Y007846D01*
X006777Y007895D01*
X006818Y007951D01*
X006849Y008012D01*
X006871Y008078D01*
X006881Y008147D01*
X006881Y008181D01*
X006182Y008181D01*
X006182Y008182D01*
X006181Y008182D01*
X006181Y008621D01*
X005887Y008621D01*
X005818Y008611D01*
X005752Y008589D01*
X005691Y008558D01*
X005635Y008517D01*
X005586Y008468D01*
X005545Y008412D01*
X005514Y008350D01*
X005492Y008284D01*
X005481Y008216D01*
X005481Y008182D01*
X006181Y008182D01*
X006181Y008181D01*
X006182Y008181D01*
X006182Y007741D01*
X006476Y007741D01*
X006544Y007752D01*
X006610Y007774D01*
X006672Y007805D01*
X006591Y007633D02*
X007810Y007633D01*
X007830Y007641D02*
X007661Y007571D01*
X007531Y007442D01*
X007461Y007273D01*
X007461Y007090D01*
X007531Y006921D01*
X007661Y006791D01*
X007830Y006721D01*
X008533Y006721D01*
X008702Y006791D01*
X008831Y006921D01*
X008901Y007090D01*
X008901Y007273D01*
X008831Y007442D01*
X008702Y007571D01*
X008533Y007641D01*
X007830Y007641D01*
X007564Y007474D02*
X006815Y007474D01*
X006890Y007316D02*
X007479Y007316D01*
X007461Y007157D02*
X006901Y007157D01*
X006857Y006999D02*
X007499Y006999D01*
X007612Y006840D02*
X006735Y006840D01*
X006539Y006682D02*
X008901Y006682D01*
X008901Y006840D02*
X008751Y006840D01*
X008864Y006999D02*
X008901Y006999D01*
X008901Y007157D02*
X008901Y007157D01*
X008884Y007316D02*
X008901Y007316D01*
X008901Y007474D02*
X008799Y007474D01*
X008901Y007633D02*
X008553Y007633D01*
X008702Y007791D02*
X008901Y007791D01*
X008901Y007950D02*
X008843Y007950D01*
X008901Y008109D02*
X008901Y008109D01*
X008901Y008267D02*
X008901Y008267D01*
X008901Y008426D02*
X008838Y008426D01*
X008901Y008584D02*
X008671Y008584D01*
X008610Y008774D02*
X008544Y008752D01*
X008476Y008741D01*
X008182Y008741D01*
X008182Y009181D01*
X008881Y009181D01*
X008881Y009147D01*
X008871Y009078D01*
X008849Y009012D01*
X008818Y008951D01*
X008777Y008895D01*
X008728Y008846D01*
X008672Y008805D01*
X008610Y008774D01*
X008484Y008743D02*
X008901Y008743D01*
X008901Y008901D02*
X008782Y008901D01*
X008865Y009060D02*
X008901Y009060D01*
X008881Y009182D02*
X008881Y009216D01*
X008871Y009284D01*
X008849Y009350D01*
X008818Y009412D01*
X008777Y009468D01*
X008728Y009517D01*
X008672Y009558D01*
X008610Y009589D01*
X008544Y009611D01*
X008476Y009621D01*
X008182Y009621D01*
X008182Y009182D01*
X008881Y009182D01*
X008881Y009218D02*
X008901Y009218D01*
X008901Y009377D02*
X008836Y009377D01*
X008901Y009535D02*
X008703Y009535D01*
X008901Y009694D02*
X004961Y009694D01*
X004961Y009535D02*
X005641Y009535D01*
X005511Y009377D02*
X004961Y009377D01*
X004961Y009218D02*
X005461Y009218D01*
X005467Y009060D02*
X004961Y009060D01*
X004961Y008901D02*
X005535Y008901D01*
X005740Y008743D02*
X004961Y008743D01*
X004961Y008584D02*
X005743Y008584D01*
X005555Y008426D02*
X004961Y008426D01*
X004961Y008267D02*
X005490Y008267D01*
X005481Y008181D02*
X005481Y008147D01*
X005492Y008078D01*
X005514Y008012D01*
X005545Y007951D01*
X005586Y007895D01*
X005635Y007846D01*
X005691Y007805D01*
X005752Y007774D01*
X005818Y007752D01*
X005887Y007741D01*
X006181Y007741D01*
X006181Y008181D01*
X005481Y008181D01*
X005487Y008109D02*
X004961Y008109D01*
X004961Y007950D02*
X005546Y007950D01*
X005717Y007791D02*
X004961Y007791D01*
X004961Y007633D02*
X005772Y007633D01*
X005548Y007474D02*
X004961Y007474D01*
X004961Y007316D02*
X005473Y007316D01*
X005461Y007157D02*
X004961Y007157D01*
X004961Y006999D02*
X005506Y006999D01*
X005628Y006840D02*
X004961Y006840D01*
X004961Y006682D02*
X005824Y006682D01*
X005803Y006523D02*
X004961Y006523D01*
X004961Y006365D02*
X005851Y006365D01*
X005901Y006206D02*
X004961Y006206D01*
X004961Y006048D02*
X005901Y006048D01*
X005901Y005889D02*
X005005Y005889D01*
X005060Y005730D02*
X005901Y005730D01*
X005901Y005572D02*
X005046Y005572D01*
X004681Y005681D02*
X004681Y012181D01*
X005181Y012181D02*
X005181Y013306D01*
X005040Y013658D02*
X004961Y013658D01*
X004961Y013816D02*
X005276Y013816D01*
X005276Y013975D02*
X005005Y013975D01*
X005060Y014133D02*
X005276Y014133D01*
X005276Y014292D02*
X005045Y014292D01*
X004948Y014450D02*
X005276Y014450D01*
X005276Y014609D02*
X004935Y014609D01*
X004930Y014767D02*
X005276Y014767D01*
X005276Y014926D02*
X004847Y014926D01*
X004836Y015084D02*
X005276Y015084D01*
X005276Y015243D02*
X004836Y015243D01*
X004836Y015402D02*
X005276Y015402D01*
X005276Y015560D02*
X004836Y015560D01*
X004836Y015719D02*
X005276Y015719D01*
X005221Y015877D02*
X004892Y015877D01*
X004935Y016036D02*
X005178Y016036D01*
X005204Y016194D02*
X004909Y016194D01*
X004854Y016353D02*
X005318Y016353D01*
X005536Y016511D02*
X005576Y016511D01*
X005576Y016670D02*
X005536Y016670D01*
X005536Y016828D02*
X005576Y016828D01*
X005576Y016987D02*
X005536Y016987D01*
X005536Y017146D02*
X005576Y017146D01*
X005576Y017304D02*
X005536Y017304D01*
X005082Y017463D02*
X004920Y017463D01*
X004910Y017304D02*
X004953Y017304D01*
X004349Y017304D02*
X000661Y017304D01*
X000661Y017146D02*
X001978Y017146D01*
X002010Y017159D02*
X001842Y017089D01*
X001714Y016961D01*
X001644Y016792D01*
X001644Y016610D01*
X001683Y016517D01*
X001629Y016508D01*
X001563Y016487D01*
X001502Y016456D01*
X001446Y016415D01*
X001398Y016366D01*
X001357Y016311D01*
X001326Y016249D01*
X001305Y016184D01*
X001294Y016116D01*
X001294Y016082D01*
X001731Y016082D01*
X001731Y016081D01*
X001294Y016081D01*
X001294Y016047D01*
X001305Y015979D01*
X001326Y015913D01*
X001357Y015852D01*
X001398Y015796D01*
X001446Y015748D01*
X001502Y015707D01*
X001563Y015676D01*
X001629Y015655D01*
X001697Y015644D01*
X001731Y015644D01*
X001731Y016081D01*
X001732Y016081D01*
X001732Y015644D01*
X001766Y015644D01*
X001834Y015655D01*
X001899Y015676D01*
X001961Y015707D01*
X002016Y015748D01*
X002065Y015796D01*
X002067Y015799D01*
X002151Y015714D01*
X002151Y015062D01*
X002111Y015021D01*
X002053Y014882D01*
X002053Y014731D01*
X002111Y014592D01*
X002217Y014486D01*
X002356Y014428D01*
X002393Y014428D01*
X002361Y014396D01*
X002303Y014257D01*
X002303Y014106D01*
X002361Y013967D01*
X002467Y013861D01*
X002606Y013803D01*
X002757Y013803D01*
X002896Y013861D01*
X003002Y013967D01*
X003060Y014106D01*
X003060Y014164D01*
X003169Y014273D01*
X003211Y014376D01*
X003211Y014487D01*
X003211Y014926D01*
X003401Y014926D01*
X003401Y012996D01*
X003396Y013002D01*
X003257Y013060D01*
X003106Y013060D01*
X003027Y013027D01*
X003060Y013106D01*
X003060Y013257D01*
X003002Y013396D01*
X002896Y013502D01*
X002757Y013560D01*
X002606Y013560D01*
X002467Y013502D01*
X002426Y013461D01*
X001797Y013461D01*
X001251Y014007D01*
X001251Y014634D01*
X001134Y014751D01*
X000661Y014751D01*
X000661Y017496D01*
X000843Y017420D01*
X001146Y017420D01*
X001425Y017536D01*
X001640Y017750D01*
X001755Y018030D01*
X001755Y018333D01*
X001640Y018612D01*
X001425Y018827D01*
X001146Y018942D01*
X000843Y018942D01*
X000661Y018867D01*
X000661Y019386D01*
X005049Y019386D01*
X004973Y019355D01*
X004833Y019215D01*
X004756Y019031D01*
X004756Y018832D01*
X004823Y018671D01*
X004577Y018460D01*
X004514Y018612D01*
X004299Y018827D01*
X004020Y018942D01*
X003717Y018942D01*
X003437Y018827D01*
X003223Y018612D01*
X003107Y018333D01*
X003107Y018030D01*
X003223Y017750D01*
X003437Y017536D01*
X003717Y017420D01*
X004020Y017420D01*
X004299Y017536D01*
X004367Y017604D01*
X004333Y017028D01*
X004257Y017060D01*
X004106Y017060D01*
X003967Y017002D01*
X003861Y016896D01*
X003803Y016757D01*
X003803Y016606D01*
X003861Y016467D01*
X003901Y016426D01*
X003901Y015496D01*
X003896Y015502D01*
X003757Y015560D01*
X003606Y015560D01*
X003467Y015502D01*
X003361Y015396D01*
X003306Y015265D01*
X003252Y015396D01*
X003146Y015502D01*
X003007Y015560D01*
X002856Y015560D01*
X002717Y015502D01*
X002711Y015496D01*
X002711Y015714D01*
X002722Y015725D01*
X002773Y015674D01*
X002876Y015631D01*
X002987Y015631D01*
X002990Y015633D01*
X003010Y015624D01*
X003192Y015624D01*
X003361Y015694D01*
X003489Y015822D01*
X003559Y015990D01*
X003559Y016172D01*
X003489Y016341D01*
X003361Y016469D01*
X003215Y016529D01*
X003249Y016610D01*
X003249Y016792D01*
X003179Y016961D01*
X003051Y017089D01*
X002882Y017159D01*
X002700Y017159D01*
X002532Y017089D01*
X002446Y017003D01*
X002361Y017089D01*
X002192Y017159D01*
X002010Y017159D01*
X002225Y017146D02*
X002668Y017146D01*
X002915Y017146D02*
X004340Y017146D01*
X004359Y017463D02*
X004122Y017463D01*
X003952Y016987D02*
X003153Y016987D01*
X003234Y016828D02*
X003833Y016828D01*
X003803Y016670D02*
X003249Y016670D01*
X003259Y016511D02*
X003842Y016511D01*
X003901Y016353D02*
X003477Y016353D01*
X003550Y016194D02*
X003901Y016194D01*
X003901Y016036D02*
X003559Y016036D01*
X003512Y015877D02*
X003901Y015877D01*
X003901Y015719D02*
X003386Y015719D01*
X003101Y016081D02*
X002931Y015911D01*
X002728Y015719D02*
X002716Y015719D01*
X002711Y015560D02*
X003901Y015560D01*
X003681Y015181D02*
X003681Y006556D01*
X002401Y006523D02*
X001146Y006523D01*
X001222Y006365D02*
X002401Y006365D01*
X002401Y006206D02*
X001251Y006206D01*
X001243Y006048D02*
X002401Y006048D01*
X002401Y005889D02*
X001177Y005889D01*
X001037Y005730D02*
X002401Y005730D01*
X002401Y005572D02*
X000661Y005572D01*
X000661Y005413D02*
X001378Y005413D01*
X001303Y005255D02*
X000661Y005255D01*
X000661Y005096D02*
X001200Y005096D01*
X001042Y004938D02*
X000661Y004938D01*
X000661Y004779D02*
X000883Y004779D01*
X001358Y004462D02*
X002401Y004462D01*
X002401Y004304D02*
X001251Y004304D01*
X001251Y004145D02*
X002401Y004145D01*
X002401Y003986D02*
X001251Y003986D01*
X001251Y003828D02*
X002401Y003828D01*
X002401Y003669D02*
X001192Y003669D01*
X001158Y003511D02*
X002401Y003511D01*
X002401Y003352D02*
X001228Y003352D01*
X001251Y003194D02*
X002401Y003194D01*
X002401Y003035D02*
X002316Y003035D01*
X002047Y003035D02*
X001238Y003035D01*
X001172Y002877D02*
X001853Y002877D01*
X001803Y002718D02*
X001024Y002718D01*
X001081Y002560D02*
X001822Y002560D01*
X001901Y002401D02*
X001187Y002401D01*
X001229Y002242D02*
X001901Y002242D01*
X001901Y002084D02*
X001223Y002084D01*
X001168Y001925D02*
X001901Y001925D01*
X001901Y001767D02*
X001045Y001767D01*
X001061Y001608D02*
X001901Y001608D01*
X001901Y001450D02*
X001187Y001450D01*
X001251Y001291D02*
X001817Y001291D01*
X001803Y001133D02*
X001251Y001133D01*
X001212Y000974D02*
X001858Y000974D01*
X002076Y000816D02*
X001122Y000816D01*
X002181Y001181D02*
X002181Y002681D01*
X002681Y002181D02*
X002681Y013181D01*
X001681Y013181D01*
X000681Y014181D01*
X001251Y014133D02*
X002303Y014133D01*
X002318Y014292D02*
X001251Y014292D01*
X001251Y014450D02*
X002302Y014450D01*
X002104Y014609D02*
X001251Y014609D01*
X000661Y014767D02*
X002053Y014767D01*
X002071Y014926D02*
X000661Y014926D01*
X000661Y015084D02*
X002151Y015084D01*
X002151Y015243D02*
X000661Y015243D01*
X000661Y015402D02*
X002151Y015402D01*
X002151Y015560D02*
X000661Y015560D01*
X000661Y015719D02*
X001486Y015719D01*
X001344Y015877D02*
X000661Y015877D01*
X000661Y016036D02*
X001296Y016036D01*
X001308Y016194D02*
X000661Y016194D01*
X000661Y016353D02*
X001388Y016353D01*
X001650Y016511D02*
X000661Y016511D01*
X000661Y016670D02*
X001644Y016670D01*
X001659Y016828D02*
X000661Y016828D01*
X000661Y016987D02*
X001740Y016987D01*
X001248Y017463D02*
X003615Y017463D01*
X003352Y017621D02*
X001510Y017621D01*
X001652Y017780D02*
X003211Y017780D01*
X003145Y017938D02*
X001717Y017938D01*
X001755Y018097D02*
X003107Y018097D01*
X003107Y018255D02*
X001755Y018255D01*
X001722Y018414D02*
X003141Y018414D01*
X003207Y018572D02*
X001656Y018572D01*
X001521Y018731D02*
X003342Y018731D01*
X003589Y018890D02*
X001273Y018890D01*
X000715Y018890D02*
X000661Y018890D01*
X000661Y019048D02*
X004764Y019048D01*
X004756Y018890D02*
X004147Y018890D01*
X004395Y018731D02*
X004798Y018731D01*
X004707Y018572D02*
X004530Y018572D01*
X004681Y018181D02*
X005556Y018931D01*
X004997Y019365D02*
X000661Y019365D01*
X000661Y019207D02*
X004829Y019207D01*
X004681Y018181D02*
X004556Y016056D01*
X004556Y014681D01*
X004681Y014181D02*
X004681Y013181D01*
X005836Y013182D02*
X005948Y013182D01*
X005928Y013341D02*
X005836Y013341D01*
X005836Y013499D02*
X005977Y013499D01*
X005836Y013658D02*
X006165Y013658D01*
X006420Y013816D02*
X005836Y013816D01*
X005836Y013975D02*
X006357Y013975D01*
X006303Y014133D02*
X005836Y014133D01*
X005836Y014292D02*
X006318Y014292D01*
X006401Y014450D02*
X005836Y014450D01*
X005836Y014609D02*
X006401Y014609D01*
X006401Y014767D02*
X005836Y014767D01*
X005836Y014926D02*
X006401Y014926D01*
X006401Y015084D02*
X005836Y015084D01*
X005836Y015243D02*
X006401Y015243D01*
X006401Y015402D02*
X005836Y015402D01*
X005836Y015560D02*
X006401Y015560D01*
X006401Y015719D02*
X005836Y015719D01*
X005892Y015877D02*
X006401Y015877D01*
X006332Y016036D02*
X005935Y016036D01*
X005909Y016194D02*
X006303Y016194D01*
X006343Y016353D02*
X005795Y016353D01*
X006089Y016511D02*
X006489Y016511D01*
X006681Y016181D02*
X006681Y014181D01*
X006961Y014450D02*
X007099Y014450D01*
X006961Y014609D02*
X007751Y014609D01*
X007830Y014721D02*
X007661Y014791D01*
X007531Y014921D01*
X007461Y015090D01*
X007461Y015273D01*
X007531Y015442D01*
X007661Y015571D01*
X007830Y015641D01*
X008533Y015641D01*
X008702Y015571D01*
X008831Y015442D01*
X008901Y015273D01*
X008901Y015090D01*
X008831Y014921D01*
X008702Y014791D01*
X008533Y014721D01*
X007830Y014721D01*
X007719Y014767D02*
X006961Y014767D01*
X006961Y014926D02*
X007529Y014926D01*
X007464Y015084D02*
X006961Y015084D01*
X006961Y015243D02*
X007461Y015243D01*
X007515Y015402D02*
X006961Y015402D01*
X006961Y015560D02*
X007650Y015560D01*
X007575Y015877D02*
X006961Y015877D01*
X006961Y015719D02*
X009901Y015719D01*
X009901Y015560D02*
X008713Y015560D01*
X008848Y015402D02*
X009901Y015402D01*
X009901Y015243D02*
X008901Y015243D01*
X008899Y015084D02*
X009901Y015084D01*
X008891Y014926D02*
X008833Y014926D01*
X008807Y014767D02*
X008644Y014767D01*
X008611Y014609D02*
X008803Y014609D01*
X008823Y014450D02*
X008877Y014450D01*
X008894Y014292D02*
X008901Y014292D01*
X008901Y014133D02*
X008901Y014133D01*
X008901Y013975D02*
X008854Y013975D01*
X008901Y013816D02*
X008727Y013816D01*
X008181Y014181D02*
X007181Y014181D01*
X006306Y013306D01*
X006054Y013023D02*
X005836Y013023D01*
X005836Y012865D02*
X006348Y012865D01*
X006303Y012706D02*
X005836Y012706D01*
X005836Y012548D02*
X006327Y012548D01*
X006438Y012389D02*
X005836Y012389D01*
X005836Y012231D02*
X006803Y012231D01*
X006817Y012072D02*
X005836Y012072D01*
X005836Y011914D02*
X006901Y011914D01*
X006901Y011755D02*
X006855Y011755D01*
X006557Y011755D02*
X006556Y011755D01*
X006556Y011597D02*
X006557Y011597D01*
X006556Y011438D02*
X006557Y011438D01*
X006556Y011279D02*
X006557Y011279D01*
X006556Y011121D02*
X006557Y011121D01*
X006245Y011121D02*
X005896Y011121D01*
X006016Y011279D02*
X006116Y011279D01*
X006116Y011438D02*
X006016Y011438D01*
X006016Y011597D02*
X006116Y011597D01*
X006258Y011755D02*
X005883Y011755D01*
X005556Y011431D02*
X005556Y016056D01*
X005023Y016511D02*
X004864Y016511D01*
X004181Y016681D02*
X004181Y008681D01*
X003181Y008681D02*
X003181Y009681D01*
X002401Y009377D02*
X002273Y009377D01*
X002401Y009218D02*
X002114Y009218D01*
X001956Y009060D02*
X002401Y009060D01*
X002401Y008901D02*
X001797Y008901D01*
X001639Y008743D02*
X002401Y008743D01*
X002401Y008584D02*
X001480Y008584D01*
X001322Y008426D02*
X002401Y008426D01*
X002401Y008267D02*
X001251Y008267D01*
X001251Y008109D02*
X002401Y008109D01*
X002401Y007950D02*
X001203Y007950D01*
X001098Y007791D02*
X002401Y007791D01*
X002401Y007633D02*
X001036Y007633D01*
X001177Y007474D02*
X002401Y007474D01*
X002401Y007316D02*
X001243Y007316D01*
X001251Y007157D02*
X002401Y007157D01*
X002401Y006999D02*
X001223Y006999D01*
X001146Y006840D02*
X002401Y006840D01*
X002401Y006682D02*
X000964Y006682D01*
X000681Y008181D02*
X002181Y009681D01*
X002181Y010181D01*
X001681Y010681D02*
X000681Y009681D01*
X000681Y009181D01*
X003181Y011181D02*
X003181Y012681D01*
X003345Y013023D02*
X003401Y013023D01*
X003401Y013182D02*
X003060Y013182D01*
X003025Y013341D02*
X003401Y013341D01*
X003401Y013499D02*
X002899Y013499D01*
X002788Y013816D02*
X003401Y013816D01*
X003401Y013658D02*
X001601Y013658D01*
X001443Y013816D02*
X002574Y013816D01*
X002357Y013975D02*
X001284Y013975D01*
X001760Y013499D02*
X002464Y013499D01*
X002681Y014181D02*
X002931Y014431D01*
X002931Y015181D01*
X003211Y014926D02*
X003252Y014967D01*
X003306Y015098D01*
X003361Y014967D01*
X003401Y014926D01*
X003401Y014767D02*
X003211Y014767D01*
X003211Y014609D02*
X003401Y014609D01*
X003401Y014450D02*
X003211Y014450D01*
X003177Y014292D02*
X003401Y014292D01*
X003401Y014133D02*
X003060Y014133D01*
X003005Y013975D02*
X003401Y013975D01*
X003312Y015084D02*
X003301Y015084D01*
X003246Y015402D02*
X003366Y015402D01*
X002431Y014806D02*
X002431Y016081D01*
X002147Y015719D02*
X001976Y015719D01*
X001732Y015719D02*
X001731Y015719D01*
X001731Y015877D02*
X001732Y015877D01*
X001731Y016036D02*
X001732Y016036D01*
X000741Y017463D02*
X000661Y017463D01*
X006116Y019365D02*
X019386Y019365D01*
X018301Y018255D02*
X018061Y018255D01*
X017301Y018255D02*
X017251Y018255D01*
X017179Y019207D02*
X017460Y019207D01*
X016660Y015560D02*
X015453Y015560D01*
X015612Y015402D02*
X016501Y015402D01*
X016471Y015243D02*
X015641Y015243D01*
X015641Y015084D02*
X016471Y015084D01*
X016536Y014926D02*
X015576Y014926D01*
X015418Y014767D02*
X016695Y014767D01*
X016274Y013499D02*
X017526Y013499D01*
X017526Y013341D02*
X016400Y013341D01*
X016435Y013182D02*
X017526Y013182D01*
X017526Y013023D02*
X016401Y013023D01*
X016336Y012865D02*
X017526Y012865D01*
X017526Y012706D02*
X016336Y012706D01*
X016336Y012548D02*
X017526Y012548D01*
X017526Y012389D02*
X016336Y012389D01*
X016336Y012231D02*
X017526Y012231D01*
X017526Y012072D02*
X016336Y012072D01*
X016336Y011914D02*
X017526Y011914D01*
X017526Y011438D02*
X017297Y011438D01*
X017371Y011279D02*
X017526Y011279D01*
X017526Y011121D02*
X017371Y011121D01*
X017335Y010962D02*
X017526Y010962D01*
X017526Y010804D02*
X017176Y010804D01*
X018086Y010804D02*
X019386Y010804D01*
X019386Y010962D02*
X018086Y010962D01*
X018086Y011121D02*
X019386Y011121D01*
X019386Y011279D02*
X018086Y011279D01*
X018086Y011438D02*
X019386Y011438D01*
X019386Y011597D02*
X018086Y011597D01*
X018086Y011755D02*
X019386Y011755D01*
X019386Y011914D02*
X018086Y011914D01*
X018086Y012072D02*
X019386Y012072D01*
X019386Y012231D02*
X018086Y012231D01*
X018086Y012389D02*
X019386Y012389D01*
X019386Y012548D02*
X018086Y012548D01*
X018086Y012706D02*
X019386Y012706D01*
X019386Y012865D02*
X018086Y012865D01*
X018086Y013023D02*
X019386Y013023D01*
X019386Y013182D02*
X018086Y013182D01*
X018086Y013341D02*
X019386Y013341D01*
X019386Y013499D02*
X018086Y013499D01*
X015776Y012865D02*
X014461Y012865D01*
X014461Y013023D02*
X015712Y013023D01*
X015776Y012706D02*
X014461Y012706D01*
X014461Y012548D02*
X015776Y012548D01*
X015776Y012389D02*
X014461Y012389D01*
X014461Y012231D02*
X015776Y012231D01*
X015776Y012072D02*
X014461Y012072D01*
X014461Y011914D02*
X015776Y011914D01*
X013401Y011755D02*
X013377Y011755D01*
X013182Y011755D02*
X013181Y011755D01*
X013181Y011914D02*
X013182Y011914D01*
X013181Y012072D02*
X013182Y012072D01*
X013181Y012231D02*
X013182Y012231D01*
X013181Y012389D02*
X013182Y012389D01*
X013181Y012548D02*
X013182Y012548D01*
X011901Y009535D02*
X011738Y009535D01*
X011702Y009571D02*
X011533Y009641D01*
X010830Y009641D01*
X010661Y009571D01*
X010531Y009442D01*
X010461Y009273D01*
X010461Y009090D01*
X010531Y008921D01*
X010661Y008791D01*
X010830Y008721D01*
X011533Y008721D01*
X011702Y008791D01*
X011831Y008921D01*
X011901Y009090D01*
X011901Y009273D01*
X011831Y009442D01*
X011702Y009571D01*
X011858Y009377D02*
X011901Y009377D01*
X011901Y009218D02*
X011901Y009218D01*
X011889Y009060D02*
X011901Y009060D01*
X011901Y008901D02*
X011812Y008901D01*
X011901Y008743D02*
X011584Y008743D01*
X011533Y008641D02*
X011702Y008571D01*
X011831Y008442D01*
X011901Y008273D01*
X011901Y008090D01*
X011831Y007921D01*
X011702Y007791D01*
X011533Y007721D01*
X010830Y007721D01*
X010661Y007791D01*
X010531Y007921D01*
X010461Y008090D01*
X010461Y008273D01*
X010531Y008442D01*
X010661Y008571D01*
X010830Y008641D01*
X011533Y008641D01*
X011671Y008584D02*
X011901Y008584D01*
X011901Y008426D02*
X011838Y008426D01*
X011901Y008267D02*
X011901Y008267D01*
X011901Y008109D02*
X011901Y008109D01*
X011901Y007950D02*
X011843Y007950D01*
X011901Y007791D02*
X011702Y007791D01*
X011901Y007633D02*
X010461Y007633D01*
X010461Y007791D02*
X010661Y007791D01*
X010519Y007950D02*
X010461Y007950D01*
X010461Y008109D02*
X010461Y008109D01*
X010461Y008267D02*
X010461Y008267D01*
X010461Y008426D02*
X010525Y008426D01*
X010461Y008584D02*
X010692Y008584D01*
X010778Y008743D02*
X010461Y008743D01*
X010461Y008901D02*
X010551Y008901D01*
X010474Y009060D02*
X010461Y009060D01*
X010461Y009218D02*
X010461Y009218D01*
X010461Y009377D02*
X010505Y009377D01*
X010461Y009535D02*
X010625Y009535D01*
X009901Y009535D02*
X009461Y009535D01*
X009461Y009377D02*
X009901Y009377D01*
X009901Y009218D02*
X009461Y009218D01*
X009461Y009060D02*
X009901Y009060D01*
X009901Y008901D02*
X009461Y008901D01*
X009461Y008743D02*
X009901Y008743D01*
X009901Y008584D02*
X009461Y008584D01*
X009461Y008426D02*
X009901Y008426D01*
X009901Y008267D02*
X009461Y008267D01*
X009461Y008109D02*
X009901Y008109D01*
X009901Y007950D02*
X009461Y007950D01*
X009461Y007791D02*
X009901Y007791D01*
X009901Y007633D02*
X009461Y007633D01*
X009461Y007474D02*
X009901Y007474D01*
X009901Y007316D02*
X009461Y007316D01*
X009461Y007157D02*
X009901Y007157D01*
X009901Y006999D02*
X009461Y006999D01*
X009461Y006840D02*
X009901Y006840D01*
X009901Y006682D02*
X009461Y006682D01*
X009461Y006523D02*
X009901Y006523D01*
X009901Y006365D02*
X009461Y006365D01*
X009461Y006206D02*
X009901Y006206D01*
X009901Y006048D02*
X009461Y006048D01*
X009461Y005889D02*
X009901Y005889D01*
X009901Y005730D02*
X009461Y005730D01*
X009461Y005572D02*
X009901Y005572D01*
X009901Y005413D02*
X009461Y005413D01*
X009461Y005255D02*
X009901Y005255D01*
X009901Y005096D02*
X009461Y005096D01*
X009461Y004938D02*
X009901Y004938D01*
X009901Y004779D02*
X009461Y004779D01*
X009461Y004621D02*
X009901Y004621D01*
X009901Y004462D02*
X009461Y004462D01*
X009461Y004304D02*
X009822Y004304D01*
X009803Y004145D02*
X009461Y004145D01*
X009461Y003986D02*
X009853Y003986D01*
X009901Y003828D02*
X009461Y003828D01*
X009461Y003669D02*
X009901Y003669D01*
X009901Y003511D02*
X009461Y003511D01*
X009520Y003352D02*
X009901Y003352D01*
X009901Y003194D02*
X009560Y003194D01*
X009530Y003035D02*
X009901Y003035D01*
X009853Y002877D02*
X009412Y002877D01*
X008702Y003791D02*
X008831Y003921D01*
X008901Y004090D01*
X008901Y004273D01*
X008831Y004442D01*
X008702Y004571D01*
X008533Y004641D01*
X007830Y004641D01*
X007661Y004571D01*
X007531Y004442D01*
X007461Y004273D01*
X007461Y004090D01*
X007531Y003921D01*
X007661Y003791D01*
X007830Y003721D01*
X008533Y003721D01*
X008702Y003791D01*
X008738Y003828D02*
X008901Y003828D01*
X008901Y003986D02*
X008859Y003986D01*
X008901Y004145D02*
X008901Y004145D01*
X008889Y004304D02*
X008901Y004304D01*
X008901Y004462D02*
X008811Y004462D01*
X008901Y004621D02*
X008583Y004621D01*
X008533Y004721D02*
X008702Y004791D01*
X008831Y004921D01*
X008901Y005090D01*
X008901Y005273D01*
X008831Y005442D01*
X008702Y005571D01*
X008533Y005641D01*
X007830Y005641D01*
X007661Y005571D01*
X007531Y005442D01*
X007461Y005273D01*
X007461Y005090D01*
X007531Y004921D01*
X007661Y004791D01*
X007830Y004721D01*
X008533Y004721D01*
X008672Y004779D02*
X008901Y004779D01*
X008901Y004938D02*
X008838Y004938D01*
X008901Y005096D02*
X008901Y005096D01*
X008901Y005255D02*
X008901Y005255D01*
X008901Y005413D02*
X008843Y005413D01*
X008901Y005572D02*
X008701Y005572D01*
X008555Y005730D02*
X008901Y005730D01*
X008901Y005889D02*
X008799Y005889D01*
X008831Y005921D02*
X008901Y006090D01*
X008901Y006273D01*
X008831Y006442D01*
X008702Y006571D01*
X008533Y006641D01*
X007830Y006641D01*
X007661Y006571D01*
X007531Y006442D01*
X007461Y006273D01*
X007461Y006090D01*
X007531Y005921D01*
X007661Y005791D01*
X007830Y005721D01*
X008533Y005721D01*
X008702Y005791D01*
X008831Y005921D01*
X008884Y006048D02*
X008901Y006048D01*
X008901Y006206D02*
X008901Y006206D01*
X008901Y006365D02*
X008863Y006365D01*
X008901Y006523D02*
X008750Y006523D01*
X007808Y005730D02*
X007560Y005730D01*
X007546Y005572D02*
X007662Y005572D01*
X007520Y005413D02*
X007461Y005413D01*
X007461Y005255D02*
X007461Y005255D01*
X007461Y005096D02*
X007461Y005096D01*
X007461Y004938D02*
X007524Y004938D01*
X007461Y004779D02*
X007690Y004779D01*
X007780Y004621D02*
X007461Y004621D01*
X007461Y004462D02*
X007552Y004462D01*
X007474Y004304D02*
X007461Y004304D01*
X007461Y004145D02*
X007461Y004145D01*
X007461Y003986D02*
X007504Y003986D01*
X007461Y003828D02*
X007624Y003828D01*
X006901Y003828D02*
X006461Y003828D01*
X006461Y003986D02*
X006901Y003986D01*
X006901Y004145D02*
X006461Y004145D01*
X006461Y004304D02*
X006901Y004304D01*
X006901Y004462D02*
X006461Y004462D01*
X006461Y004621D02*
X006901Y004621D01*
X006901Y004779D02*
X006461Y004779D01*
X006461Y004938D02*
X006901Y004938D01*
X006901Y005096D02*
X006461Y005096D01*
X006461Y005255D02*
X006901Y005255D01*
X006901Y005413D02*
X006461Y005413D01*
X006461Y005572D02*
X006817Y005572D01*
X006803Y005730D02*
X006461Y005730D01*
X006461Y005889D02*
X006858Y005889D01*
X007076Y006048D02*
X006461Y006048D01*
X006461Y006206D02*
X007461Y006206D01*
X007479Y006048D02*
X007286Y006048D01*
X007505Y005889D02*
X007563Y005889D01*
X007181Y005681D02*
X007181Y001181D01*
X006802Y001608D02*
X006561Y001608D01*
X006461Y001767D02*
X006901Y001767D01*
X006901Y001925D02*
X006461Y001925D01*
X006461Y002084D02*
X006901Y002084D01*
X006901Y002242D02*
X006461Y002242D01*
X006461Y002401D02*
X006901Y002401D01*
X006901Y002560D02*
X006461Y002560D01*
X006461Y002718D02*
X006901Y002718D01*
X006901Y002877D02*
X006461Y002877D01*
X006461Y003035D02*
X006901Y003035D01*
X006901Y003194D02*
X006461Y003194D01*
X006461Y003352D02*
X006901Y003352D01*
X006901Y003511D02*
X006461Y003511D01*
X006461Y003669D02*
X006901Y003669D01*
X005901Y003669D02*
X004461Y003669D01*
X004407Y003511D02*
X005901Y003511D01*
X005901Y003352D02*
X002961Y003352D01*
X002961Y003194D02*
X005901Y003194D01*
X005901Y003035D02*
X002961Y003035D01*
X002961Y002877D02*
X005901Y002877D01*
X005901Y002718D02*
X002961Y002718D01*
X002961Y002560D02*
X005901Y002560D01*
X005901Y002401D02*
X002997Y002401D01*
X003060Y002242D02*
X005901Y002242D01*
X005901Y002084D02*
X003051Y002084D01*
X002961Y001925D02*
X005901Y001925D01*
X005901Y001767D02*
X002461Y001767D01*
X002461Y001608D02*
X002611Y001608D01*
X002611Y001450D02*
X002461Y001450D01*
X002546Y001291D02*
X002611Y001291D01*
X002611Y001133D02*
X002560Y001133D01*
X002611Y000974D02*
X002505Y000974D01*
X002611Y000816D02*
X002287Y000816D01*
X003751Y001608D02*
X003802Y001608D01*
X004561Y001608D02*
X004833Y001608D01*
X004701Y001450D02*
X004687Y001450D01*
X005161Y001450D02*
X005201Y001450D01*
X005201Y001608D02*
X005161Y001608D01*
X005161Y001291D02*
X005201Y001291D01*
X005530Y001608D02*
X005802Y001608D01*
X005676Y001450D02*
X005662Y001450D01*
X006181Y001181D02*
X006181Y006556D01*
X006560Y006523D02*
X007613Y006523D01*
X007499Y006365D02*
X006512Y006365D01*
X005901Y005413D02*
X005485Y005413D01*
X005560Y005255D02*
X005901Y005255D01*
X005901Y005096D02*
X005556Y005096D01*
X005473Y004938D02*
X005901Y004938D01*
X005901Y004779D02*
X002961Y004779D01*
X002967Y004861D02*
X003106Y004803D01*
X003257Y004803D01*
X003396Y004861D01*
X003437Y004901D01*
X004926Y004901D01*
X005181Y005181D02*
X003181Y005181D01*
X002961Y004866D02*
X002967Y004861D01*
X002961Y004866D02*
X002961Y004584D01*
X002999Y004621D01*
X003181Y004621D01*
X003182Y004621D02*
X003364Y004621D01*
X003182Y004462D02*
X003181Y004462D01*
X003181Y004304D02*
X003182Y004304D01*
X003181Y004145D02*
X003182Y004145D01*
X003181Y003986D02*
X003182Y003986D01*
X003181Y003828D02*
X003182Y003828D01*
X002998Y004621D02*
X002961Y004621D01*
X002401Y004621D02*
X001517Y004621D01*
X001675Y004779D02*
X002401Y004779D01*
X002401Y004938D02*
X001973Y004938D01*
X002056Y005096D02*
X002401Y005096D01*
X002401Y005255D02*
X002060Y005255D01*
X001985Y005413D02*
X002401Y005413D01*
X001681Y005181D02*
X000681Y004181D01*
X006181Y007791D02*
X006182Y007791D01*
X006181Y007950D02*
X006182Y007950D01*
X006181Y008109D02*
X006182Y008109D01*
X006182Y008182D02*
X006881Y008182D01*
X006881Y008216D01*
X006871Y008284D01*
X006849Y008350D01*
X006818Y008412D01*
X006777Y008468D01*
X006728Y008517D01*
X006672Y008558D01*
X006610Y008589D01*
X006544Y008611D01*
X006476Y008621D01*
X006182Y008621D01*
X006182Y008182D01*
X006181Y008267D02*
X006182Y008267D01*
X006181Y008426D02*
X006182Y008426D01*
X006181Y008584D02*
X006182Y008584D01*
X006620Y008584D02*
X007383Y008584D01*
X007525Y008426D02*
X006808Y008426D01*
X006873Y008267D02*
X007461Y008267D01*
X007461Y008109D02*
X006875Y008109D01*
X006817Y007950D02*
X007519Y007950D01*
X007224Y008743D02*
X006622Y008743D01*
X006828Y008901D02*
X006926Y008901D01*
X007315Y009535D02*
X007660Y009535D01*
X007527Y009377D02*
X007510Y009377D01*
X007600Y009853D02*
X007376Y009853D01*
X006852Y010487D02*
X004961Y010487D01*
X004961Y010645D02*
X006803Y010645D01*
X006823Y010804D02*
X004961Y010804D01*
X004961Y010962D02*
X006901Y010962D01*
X006901Y011121D02*
X006868Y011121D01*
X007181Y010681D02*
X007181Y012181D01*
X007461Y011914D02*
X007539Y011914D01*
X007461Y011755D02*
X007749Y011755D01*
X007722Y011597D02*
X007461Y011597D01*
X007461Y011438D02*
X007530Y011438D01*
X007464Y011279D02*
X007461Y011279D01*
X007461Y011121D02*
X007461Y011121D01*
X007461Y010962D02*
X007514Y010962D01*
X008787Y010487D02*
X008901Y010487D01*
X008901Y010328D02*
X008879Y010328D01*
X008901Y010170D02*
X008901Y010170D01*
X008901Y010011D02*
X008869Y010011D01*
X008901Y009853D02*
X008763Y009853D01*
X008182Y009535D02*
X008181Y009535D01*
X008181Y009377D02*
X008182Y009377D01*
X008181Y009218D02*
X008182Y009218D01*
X008181Y009060D02*
X008182Y009060D01*
X008181Y008901D02*
X008182Y008901D01*
X008181Y008743D02*
X008182Y008743D01*
X009461Y009694D02*
X009901Y009694D01*
X009901Y009853D02*
X009876Y009853D01*
X009486Y009853D02*
X009461Y009853D01*
X010461Y007474D02*
X010592Y007474D01*
X010502Y007316D02*
X010461Y007316D01*
X010481Y007181D02*
X010481Y007147D01*
X010492Y007078D01*
X010514Y007012D01*
X010545Y006951D01*
X010586Y006895D01*
X010635Y006846D01*
X010691Y006805D01*
X010752Y006774D01*
X010818Y006752D01*
X010887Y006741D01*
X011181Y006741D01*
X011181Y007181D01*
X010481Y007181D01*
X010481Y007157D02*
X010461Y007157D01*
X010461Y006999D02*
X010521Y006999D01*
X010461Y006840D02*
X010642Y006840D01*
X010461Y006682D02*
X018398Y006682D01*
X018217Y006523D02*
X011750Y006523D01*
X011702Y006571D02*
X011533Y006641D01*
X010830Y006641D01*
X010661Y006571D01*
X010531Y006442D01*
X010461Y006273D01*
X010461Y006090D01*
X010531Y005921D01*
X010661Y005791D01*
X010830Y005721D01*
X011533Y005721D01*
X011702Y005791D01*
X011831Y005921D01*
X011901Y006090D01*
X011901Y006273D01*
X011831Y006442D01*
X011702Y006571D01*
X011863Y006365D02*
X018140Y006365D01*
X018111Y006206D02*
X011901Y006206D01*
X011884Y006048D02*
X014925Y006048D01*
X014999Y006121D02*
X014741Y005864D01*
X014741Y005682D01*
X015181Y005682D01*
X015181Y006121D01*
X014999Y006121D01*
X015182Y006121D02*
X015182Y005682D01*
X015181Y005682D01*
X015181Y005681D01*
X014741Y005681D01*
X014741Y005499D01*
X014999Y005241D01*
X015181Y005241D01*
X015181Y005681D01*
X015182Y005681D01*
X015182Y005682D01*
X015621Y005682D01*
X015621Y005864D01*
X015364Y006121D01*
X015182Y006121D01*
X015181Y006048D02*
X015182Y006048D01*
X015181Y005889D02*
X015182Y005889D01*
X015181Y005730D02*
X015182Y005730D01*
X015182Y005681D02*
X015621Y005681D01*
X015621Y005499D01*
X015364Y005241D01*
X015182Y005241D01*
X015182Y005681D01*
X015181Y005572D02*
X015182Y005572D01*
X015181Y005413D02*
X015182Y005413D01*
X015181Y005255D02*
X015182Y005255D01*
X015377Y005255D02*
X018303Y005255D01*
X018307Y005096D02*
X011901Y005096D01*
X011901Y005090D02*
X011901Y005273D01*
X011831Y005442D01*
X011702Y005571D01*
X011533Y005641D01*
X010830Y005641D01*
X010661Y005571D01*
X010531Y005442D01*
X010461Y005273D01*
X010461Y005090D01*
X010531Y004921D01*
X010661Y004791D01*
X010830Y004721D01*
X011533Y004721D01*
X011702Y004791D01*
X011831Y004921D01*
X011901Y005090D01*
X011838Y004938D02*
X018390Y004938D01*
X018401Y004779D02*
X011672Y004779D01*
X011583Y004621D02*
X014470Y004621D01*
X014491Y004641D02*
X014221Y004372D01*
X014221Y003991D01*
X014491Y003721D01*
X014872Y003721D01*
X015141Y003991D01*
X015141Y004372D01*
X014872Y004641D01*
X014491Y004641D01*
X014312Y004462D02*
X011811Y004462D01*
X011889Y004304D02*
X014221Y004304D01*
X014221Y004145D02*
X011901Y004145D01*
X011859Y003986D02*
X014226Y003986D01*
X014384Y003828D02*
X011738Y003828D01*
X011702Y003571D02*
X011533Y003641D01*
X010830Y003641D01*
X010661Y003571D01*
X010531Y003442D01*
X010461Y003273D01*
X010461Y003090D01*
X010531Y002921D01*
X010661Y002791D01*
X010830Y002721D01*
X011533Y002721D01*
X011702Y002791D01*
X011831Y002921D01*
X011901Y003090D01*
X011901Y003273D01*
X011831Y003442D01*
X011702Y003571D01*
X011762Y003511D02*
X015401Y003511D01*
X015401Y003669D02*
X010461Y003669D01*
X010461Y003511D02*
X010600Y003511D01*
X010494Y003352D02*
X010461Y003352D01*
X010461Y003194D02*
X010461Y003194D01*
X010461Y003035D02*
X010484Y003035D01*
X010510Y002877D02*
X010576Y002877D01*
X010560Y002718D02*
X015401Y002718D01*
X015401Y002560D02*
X010541Y002560D01*
X010436Y002401D02*
X015401Y002401D01*
X015401Y002242D02*
X007461Y002242D01*
X007461Y002084D02*
X011462Y002084D01*
X011499Y002121D02*
X011241Y001864D01*
X011241Y001682D01*
X011681Y001682D01*
X011681Y002121D01*
X011499Y002121D01*
X011682Y002121D02*
X011864Y002121D01*
X012121Y001864D01*
X012121Y001682D01*
X011682Y001682D01*
X011682Y001681D01*
X012121Y001681D01*
X012121Y001499D01*
X011864Y001241D01*
X011682Y001241D01*
X011682Y001681D01*
X011681Y001681D01*
X011681Y001241D01*
X011499Y001241D01*
X011241Y001499D01*
X011241Y001681D01*
X011681Y001681D01*
X011681Y001682D01*
X011682Y001682D01*
X011682Y002121D01*
X011681Y002084D02*
X011682Y002084D01*
X011681Y001925D02*
X011682Y001925D01*
X011681Y001767D02*
X011682Y001767D01*
X011681Y001608D02*
X011682Y001608D01*
X011681Y001450D02*
X011682Y001450D01*
X011681Y001291D02*
X011682Y001291D01*
X011913Y001291D02*
X015421Y001291D01*
X015491Y001221D02*
X015872Y001221D01*
X016141Y001491D01*
X016141Y001872D01*
X015961Y002052D01*
X015961Y003811D01*
X016141Y003991D01*
X016141Y004372D01*
X015872Y004641D01*
X015491Y004641D01*
X015221Y004372D01*
X015221Y003991D01*
X015401Y003811D01*
X015401Y002052D01*
X015221Y001872D01*
X015221Y001491D01*
X015491Y001221D01*
X015263Y001450D02*
X012072Y001450D01*
X012121Y001608D02*
X015221Y001608D01*
X015221Y001767D02*
X012121Y001767D01*
X012060Y001925D02*
X015275Y001925D01*
X015401Y002084D02*
X011901Y002084D01*
X011303Y001925D02*
X007461Y001925D01*
X007461Y001767D02*
X011241Y001767D01*
X011241Y001608D02*
X008561Y001608D01*
X008687Y001450D02*
X011291Y001450D01*
X011449Y001291D02*
X008751Y001291D01*
X008751Y001133D02*
X016303Y001133D01*
X016303Y001106D02*
X016361Y000967D01*
X016467Y000861D01*
X016606Y000803D01*
X016757Y000803D01*
X016896Y000861D01*
X017002Y000967D01*
X017060Y001106D01*
X017060Y001257D01*
X017002Y001396D01*
X016961Y001437D01*
X016961Y002426D01*
X017002Y002467D01*
X017060Y002606D01*
X017060Y002757D01*
X017002Y002896D01*
X016896Y003002D01*
X016757Y003060D01*
X016606Y003060D01*
X016467Y003002D01*
X016361Y002896D01*
X016303Y002757D01*
X016303Y002606D01*
X016361Y002467D01*
X016401Y002426D01*
X016401Y001437D01*
X016361Y001396D01*
X016303Y001257D01*
X016303Y001106D01*
X016358Y000974D02*
X008712Y000974D01*
X008622Y000816D02*
X016576Y000816D01*
X016681Y001181D02*
X016681Y002681D01*
X016322Y002560D02*
X015961Y002560D01*
X015961Y002718D02*
X016303Y002718D01*
X016353Y002877D02*
X015961Y002877D01*
X015961Y003035D02*
X016547Y003035D01*
X016816Y003035D02*
X018125Y003035D01*
X018111Y003194D02*
X015961Y003194D01*
X015961Y003352D02*
X018135Y003352D01*
X018205Y003511D02*
X015961Y003511D01*
X015961Y003669D02*
X018171Y003669D01*
X018111Y003828D02*
X015978Y003828D01*
X016137Y003986D02*
X018111Y003986D01*
X018111Y004145D02*
X016141Y004145D01*
X016141Y004304D02*
X018111Y004304D01*
X018111Y004462D02*
X016051Y004462D01*
X015893Y004621D02*
X018111Y004621D01*
X018681Y004181D02*
X018681Y005181D01*
X018973Y004938D02*
X019386Y004938D01*
X019386Y005096D02*
X019056Y005096D01*
X019060Y005255D02*
X019386Y005255D01*
X019386Y005413D02*
X018985Y005413D01*
X019037Y005730D02*
X019386Y005730D01*
X019386Y005572D02*
X015621Y005572D01*
X015621Y005730D02*
X018326Y005730D01*
X018186Y005889D02*
X015596Y005889D01*
X015437Y006048D02*
X018120Y006048D01*
X018378Y005413D02*
X015536Y005413D01*
X014986Y005255D02*
X011901Y005255D01*
X011843Y005413D02*
X014827Y005413D01*
X014741Y005572D02*
X011701Y005572D01*
X011555Y005730D02*
X014741Y005730D01*
X014767Y005889D02*
X011799Y005889D01*
X011182Y006840D02*
X011181Y006840D01*
X011181Y006999D02*
X011182Y006999D01*
X011181Y007157D02*
X011182Y007157D01*
X011181Y007316D02*
X011182Y007316D01*
X011181Y007474D02*
X011182Y007474D01*
X011771Y007474D02*
X011901Y007474D01*
X010613Y006523D02*
X010461Y006523D01*
X010461Y006365D02*
X010499Y006365D01*
X010461Y006206D02*
X010461Y006206D01*
X010461Y006048D02*
X010479Y006048D01*
X010461Y005889D02*
X010563Y005889D01*
X010461Y005730D02*
X010808Y005730D01*
X010662Y005572D02*
X010461Y005572D01*
X010461Y005413D02*
X010520Y005413D01*
X010461Y005255D02*
X010461Y005255D01*
X010461Y005096D02*
X010461Y005096D01*
X010461Y004938D02*
X010524Y004938D01*
X010461Y004779D02*
X010690Y004779D01*
X010780Y004621D02*
X010461Y004621D01*
X010461Y004462D02*
X010552Y004462D01*
X010624Y003828D02*
X010461Y003828D01*
X011869Y003352D02*
X015401Y003352D01*
X015401Y003194D02*
X011901Y003194D01*
X011879Y003035D02*
X015401Y003035D01*
X015401Y002877D02*
X011787Y002877D01*
X014978Y003828D02*
X015384Y003828D01*
X015226Y003986D02*
X015137Y003986D01*
X015141Y004145D02*
X015221Y004145D01*
X015221Y004304D02*
X015141Y004304D01*
X015051Y004462D02*
X015312Y004462D01*
X015470Y004621D02*
X014893Y004621D01*
X015681Y004181D02*
X015681Y001681D01*
X016141Y001608D02*
X016401Y001608D01*
X016401Y001450D02*
X016100Y001450D01*
X015942Y001291D02*
X016317Y001291D01*
X016401Y001767D02*
X016141Y001767D01*
X016088Y001925D02*
X016401Y001925D01*
X016401Y002084D02*
X015961Y002084D01*
X015961Y002242D02*
X016401Y002242D01*
X016401Y002401D02*
X015961Y002401D01*
X016961Y002401D02*
X018176Y002401D01*
X018134Y002242D02*
X016961Y002242D01*
X016961Y002084D02*
X018140Y002084D01*
X018195Y001925D02*
X016961Y001925D01*
X016961Y001767D02*
X018318Y001767D01*
X018302Y001608D02*
X016961Y001608D01*
X016961Y001450D02*
X018176Y001450D01*
X018111Y001291D02*
X017046Y001291D01*
X017060Y001133D02*
X018111Y001133D01*
X018150Y000974D02*
X017005Y000974D01*
X016787Y000816D02*
X018241Y000816D01*
X019122Y000816D02*
X019386Y000816D01*
X019386Y000974D02*
X019212Y000974D01*
X019251Y001133D02*
X019386Y001133D01*
X019386Y001291D02*
X019251Y001291D01*
X019187Y001450D02*
X019386Y001450D01*
X019386Y001608D02*
X019061Y001608D01*
X019045Y001767D02*
X019386Y001767D01*
X019386Y001925D02*
X019168Y001925D01*
X019223Y002084D02*
X019386Y002084D01*
X019386Y002242D02*
X019229Y002242D01*
X019187Y002401D02*
X019386Y002401D01*
X019386Y002560D02*
X019081Y002560D01*
X019024Y002718D02*
X019386Y002718D01*
X019386Y002877D02*
X019172Y002877D01*
X019238Y003035D02*
X019386Y003035D01*
X019386Y003194D02*
X019251Y003194D01*
X019228Y003352D02*
X019386Y003352D01*
X019386Y003511D02*
X019158Y003511D01*
X019192Y003669D02*
X019386Y003669D01*
X019386Y003828D02*
X019251Y003828D01*
X019251Y003986D02*
X019386Y003986D01*
X019386Y004145D02*
X019251Y004145D01*
X019251Y004304D02*
X019386Y004304D01*
X019386Y004462D02*
X019251Y004462D01*
X019251Y004621D02*
X019386Y004621D01*
X019386Y004779D02*
X018961Y004779D01*
X019177Y005889D02*
X019386Y005889D01*
X019386Y006048D02*
X019243Y006048D01*
X019251Y006206D02*
X019386Y006206D01*
X019386Y006365D02*
X019222Y006365D01*
X019146Y006523D02*
X019386Y006523D01*
X019386Y006682D02*
X018964Y006682D01*
X019146Y006840D02*
X019386Y006840D01*
X019386Y006999D02*
X019223Y006999D01*
X019251Y007157D02*
X019386Y007157D01*
X019386Y007316D02*
X019243Y007316D01*
X019177Y007474D02*
X019386Y007474D01*
X019386Y007633D02*
X019036Y007633D01*
X019098Y007791D02*
X019386Y007791D01*
X019386Y007950D02*
X019203Y007950D01*
X019251Y008109D02*
X019386Y008109D01*
X019386Y008267D02*
X019251Y008267D01*
X019197Y008426D02*
X019386Y008426D01*
X019386Y008584D02*
X019085Y008584D01*
X019251Y008743D02*
X019386Y008743D01*
X019386Y008901D02*
X019251Y008901D01*
X019251Y009060D02*
X019386Y009060D01*
X019386Y009218D02*
X019251Y009218D01*
X019251Y009377D02*
X019386Y009377D01*
X019386Y009535D02*
X019251Y009535D01*
X019192Y009694D02*
X019386Y009694D01*
X019386Y009853D02*
X018145Y009853D01*
X018086Y010011D02*
X019386Y010011D01*
X019386Y010170D02*
X018086Y010170D01*
X018086Y010328D02*
X019386Y010328D01*
X019386Y010487D02*
X018086Y010487D01*
X018086Y010645D02*
X019386Y010645D01*
X018111Y009377D02*
X018037Y009377D01*
X018191Y002877D02*
X017010Y002877D01*
X017060Y002718D02*
X018339Y002718D01*
X018282Y002560D02*
X017041Y002560D01*
X007802Y001608D02*
X007561Y001608D01*
X005216Y011121D02*
X004961Y011121D01*
X004961Y011279D02*
X005096Y011279D01*
X005096Y011438D02*
X004961Y011438D01*
X004961Y011597D02*
X005096Y011597D01*
X004961Y011755D02*
X005230Y011755D01*
X006681Y012681D02*
X007681Y012681D01*
X007484Y016036D02*
X007031Y016036D01*
X007060Y016194D02*
X007461Y016194D01*
X007495Y016353D02*
X007020Y016353D01*
X006874Y016511D02*
X007601Y016511D01*
D21*
X006681Y016181D03*
X005556Y016056D03*
X004556Y016056D03*
X004181Y016681D03*
X003681Y015181D03*
X002931Y015181D03*
X002431Y014806D03*
X002681Y014181D03*
X002681Y013181D03*
X003181Y012681D03*
X003181Y011181D03*
X002181Y010181D03*
X001681Y010681D03*
X003181Y009681D03*
X003181Y008681D03*
X004181Y008681D03*
X003681Y006556D03*
X004681Y005681D03*
X005181Y005181D03*
X006181Y006556D03*
X007181Y005681D03*
X009181Y003181D03*
X010181Y002681D03*
X010181Y004181D03*
X012181Y007181D03*
X014181Y009181D03*
X016056Y008181D03*
X017806Y009681D03*
X016056Y013181D03*
X014181Y014181D03*
X013681Y015681D03*
X011681Y015681D03*
X011681Y016681D03*
X010181Y016181D03*
X008681Y017056D03*
X009181Y014681D03*
X009681Y013681D03*
X012181Y012181D03*
X013681Y011181D03*
X009681Y010181D03*
X007181Y010181D03*
X007181Y010681D03*
X007181Y012181D03*
X006681Y012681D03*
X006306Y013306D03*
X006681Y014181D03*
X005181Y013306D03*
X004681Y013181D03*
X004681Y012181D03*
X005181Y012181D03*
X004681Y014181D03*
X004556Y014681D03*
X007181Y009181D03*
X003181Y005181D03*
X001681Y005181D03*
X002181Y002681D03*
X002681Y002181D03*
X002181Y001181D03*
X016681Y001181D03*
X016681Y002681D03*
X018681Y005181D03*
X018681Y015931D03*
X017806Y015931D03*
M02*
