G75*
G70*
%OFA0B0*%
%FSLAX24Y24*%
%IPPOS*%
%LPD*%
%AMOC8*
5,1,8,0,0,1.08239X$1,22.5*
%
%ADD10C,0.0000*%
%ADD11C,0.0600*%
%ADD12C,0.0595*%
%ADD13C,0.1202*%
%ADD14R,0.0820X0.0820*%
%ADD15C,0.0820*%
%ADD16C,0.0680*%
%ADD17OC8,0.0600*%
%ADD18R,0.0730X0.0730*%
%ADD19C,0.0730*%
%ADD20C,0.0437*%
D10*
X000181Y000181D02*
X000181Y019866D01*
X019866Y019866D01*
X019866Y000181D01*
X000181Y000181D01*
D11*
X005921Y007197D02*
X006441Y007197D01*
X006441Y008181D02*
X005921Y008181D01*
X005921Y009166D02*
X006441Y009166D01*
X007921Y009181D02*
X008441Y009181D01*
X008441Y008181D02*
X007921Y008181D01*
X007921Y007181D02*
X008441Y007181D01*
X008441Y006181D02*
X007921Y006181D01*
X007921Y005181D02*
X008441Y005181D01*
X008441Y004181D02*
X007921Y004181D01*
X007921Y003181D02*
X008441Y003181D01*
X010921Y003181D02*
X011441Y003181D01*
X011441Y004181D02*
X010921Y004181D01*
X010921Y005181D02*
X011441Y005181D01*
X011441Y006181D02*
X010921Y006181D01*
X010921Y007181D02*
X011441Y007181D01*
X011441Y008181D02*
X010921Y008181D01*
X010921Y009181D02*
X011441Y009181D01*
X011441Y010181D02*
X010921Y010181D01*
X010921Y011181D02*
X011441Y011181D01*
X011441Y012181D02*
X010921Y012181D01*
X010921Y013181D02*
X011441Y013181D01*
X011441Y014181D02*
X010921Y014181D01*
X010921Y015181D02*
X011441Y015181D01*
X011441Y016181D02*
X010921Y016181D01*
X008441Y016181D02*
X007921Y016181D01*
X007921Y015181D02*
X008441Y015181D01*
X008441Y014181D02*
X007921Y014181D01*
X007921Y013181D02*
X008441Y013181D01*
X008441Y012181D02*
X007921Y012181D01*
X007921Y011181D02*
X008441Y011181D01*
X008441Y010181D02*
X007921Y010181D01*
D12*
X003101Y016081D03*
X002431Y016081D03*
X002101Y016701D03*
X002791Y016701D03*
X001731Y016081D03*
D13*
X000994Y018181D03*
X003868Y018181D03*
D14*
X000681Y014181D03*
X000681Y009181D03*
X000681Y004181D03*
X003181Y001181D03*
X018681Y004181D03*
X018681Y009181D03*
X016681Y018681D03*
X013181Y018681D03*
D15*
X014181Y018681D03*
X015181Y018681D03*
X017681Y018681D03*
X018681Y018681D03*
X018681Y008181D03*
X018681Y007181D03*
X018681Y006181D03*
X018681Y003181D03*
X018681Y002181D03*
X018681Y001181D03*
X008181Y001181D03*
X007181Y001181D03*
X006181Y001181D03*
X005181Y001181D03*
X004181Y001181D03*
X000681Y001181D03*
X000681Y002181D03*
X000681Y003181D03*
X000681Y006181D03*
X000681Y007181D03*
X000681Y008181D03*
X000681Y011181D03*
X000681Y012181D03*
X000681Y013181D03*
D16*
X005256Y016931D02*
X005856Y016931D01*
X005856Y017931D02*
X005256Y017931D01*
X005256Y018931D02*
X005856Y018931D01*
D17*
X009806Y018681D03*
X009806Y017681D03*
X011681Y017681D03*
X011681Y018681D03*
X013681Y016681D03*
X015181Y015181D03*
X016931Y015181D03*
X017681Y016681D03*
X018681Y015181D03*
X018681Y014181D03*
X016931Y011181D03*
X015181Y011181D03*
X015181Y009681D03*
X013181Y011181D03*
X013181Y012181D03*
X015181Y005681D03*
X014681Y004181D03*
X015681Y004181D03*
X015681Y001681D03*
X011681Y001681D03*
X004181Y004181D03*
X003181Y004181D03*
X005556Y011431D03*
X006556Y011431D03*
D18*
X013181Y008181D03*
X007431Y018681D03*
D19*
X007431Y017681D03*
X014181Y008181D03*
D20*
X014181Y009181D03*
X016056Y008181D03*
X017806Y009681D03*
X016056Y013181D03*
X014181Y014181D03*
X013681Y015681D03*
X011681Y015681D03*
X011681Y016681D03*
X010181Y016181D03*
X008681Y017056D03*
X006681Y016181D03*
X005556Y016056D03*
X004556Y016056D03*
X004181Y016681D03*
X003681Y015181D03*
X002931Y015181D03*
X002431Y014806D03*
X002681Y014181D03*
X002681Y013181D03*
X003181Y012681D03*
X003181Y011181D03*
X002181Y010181D03*
X001681Y010681D03*
X003181Y009681D03*
X003181Y008681D03*
X004181Y008681D03*
X003681Y006556D03*
X004681Y005681D03*
X005181Y005181D03*
X006181Y006556D03*
X007181Y005681D03*
X009181Y003181D03*
X010181Y002681D03*
X010181Y004181D03*
X012181Y007181D03*
X009681Y010181D03*
X012181Y012181D03*
X013681Y011181D03*
X009681Y013681D03*
X009181Y014681D03*
X006681Y014181D03*
X006306Y013306D03*
X006681Y012681D03*
X007181Y012181D03*
X007181Y010681D03*
X007181Y010181D03*
X007181Y009181D03*
X005181Y012181D03*
X004681Y012181D03*
X004681Y013181D03*
X005181Y013306D03*
X004681Y014181D03*
X004556Y014681D03*
X003181Y005181D03*
X001681Y005181D03*
X002181Y002681D03*
X002681Y002181D03*
X002181Y001181D03*
X016681Y001181D03*
X016681Y002681D03*
X018681Y005181D03*
X018681Y015931D03*
X017806Y015931D03*
M02*
