%
M48
M72
T01C0.0197
T02C0.0276
T03C0.0315
T04C0.0320
T05C0.0400
T06C0.0748
%
T01
X2181Y1181
X2681Y2181
X2181Y2681
X1681Y5181
X7181Y9181
X6181Y6556
X7181Y5681
X5181Y5181
X4681Y5681
X3181Y5181
X3681Y6556
X4181Y8681
X3181Y8681
X1681Y10681
X2181Y10181
X3181Y9681
X5181Y12181
X4681Y12181
X4681Y13181
X5181Y13306
X4681Y14181
X4556Y14681
X3681Y15181
X2931Y15181
X2431Y14806
X2681Y13181
X3181Y12681
X3181Y11181
X7181Y12181
X6681Y12681
X6306Y13306
X6681Y14181
X4181Y16681
X8681Y17056
X10181Y2681
X9181Y3181
X10181Y4181
X16681Y2681
X18681Y5181
X17806Y9681
X16056Y8181
X12181Y7181
X14181Y9181
X13681Y11181
X12181Y12181
X16056Y13181
X18681Y15931
X17806Y15931
X13681Y15681
X14181Y14181
X11681Y16681
X11681Y15681
X10181Y16181
X9181Y14681
X9681Y13681
X9681Y10181
X7181Y10181
X7181Y10681
X2681Y14181
X4556Y16056
X5556Y16056
X6681Y16181
X16681Y1181
T02
X7431Y18681
X7431Y17681
X14181Y8181
X13181Y8181
T03
X2101Y16701
X2791Y16701
X3101Y16081
X2431Y16081
X1731Y16081
T04
X4181Y4181
X3181Y4181
X8181Y3181
X11181Y3181
X11181Y4181
X11181Y5181
X11181Y6181
X11181Y7181
X11181Y8181
X11181Y9181
X11181Y10181
X11181Y11181
X11181Y12181
X11181Y13181
X11181Y14181
X11181Y15181
X11181Y16181
X9806Y18681
X9806Y17681
X8181Y16181
X8181Y15181
X8181Y14181
X8181Y13181
X8181Y12181
X8181Y11181
X8181Y10181
X8181Y9181
X8181Y8181
X8181Y7181
X8181Y6181
X8181Y5181
X8181Y4181
X6181Y7197
X6181Y8181
X6181Y9166
X6556Y11431
X5556Y11431
X15181Y9681
X13181Y11181
X13181Y12181
X15181Y15181
X15181Y11181
X16931Y15181
X16931Y11181
X15181Y5681
X15681Y1681
X15681Y4181
X14681Y4181
X11681Y1681
X18681Y14181
X18681Y15181
X17681Y16681
X13681Y16681
X11681Y17681
X11681Y18681
T05
X5556Y18931
X5556Y17931
X5556Y16931
X18681Y3181
X18681Y1181
X18681Y2181
X18681Y4181
X18681Y6181
X18681Y8181
X18681Y7181
X18681Y9181
X13181Y18681
X15181Y18681
X16681Y18681
X17681Y18681
X18681Y18681
X14181Y18681
X681Y3181
X681Y1181
X681Y2181
X3181Y1181
X5181Y1181
X4181Y1181
X681Y4181
X6181Y1181
X7181Y1181
X8181Y1181
X681Y13181
X681Y11181
X681Y12181
X681Y14181
X681Y9181
X681Y6181
X681Y7181
X681Y8181
T06
X3868Y18181
X994Y18181
M30
